<svg height="200" viewBox="0 0 483 200" width="483" xmlns="http://www.w3.org/2000/svg"><g fill="none" fill-rule="evenodd"><g transform="translate(.637695 .227269)"><g fill="#dae2e6"><path d="m3.81958716 99.0166042s.74811109 1.1775578 1.22160155 1.6510478c.4880653.488065 1.66306573 1.233619 1.66306573 1.233619s-1.19562681.788682-1.66306573 1.256121c-.49411684.494117-1.22160155 1.628547-1.22160155 1.628547s-.73268393-1.170569-1.19066199-1.628547c-.5035777-.503577-1.6940053-1.256121-1.6940053-1.256121s1.19814118-.737755 1.6940053-1.233619c.46569164-.465692 1.19066199-1.6510478 1.19066199-1.6510478z"/><path d="m464.224173 161.804065s.78347 1.233214 1.27934 1.729083c.511133.511134 1.741669 1.291926 1.741669 1.291926s-1.252137.825959-1.741669 1.315491c-.517471.517471-1.27934 1.705519-1.27934 1.705519s-.767314-1.225895-1.246938-1.705519c-.527379-.527379-1.774072-1.315491-1.774072-1.315491s1.254771-.772625 1.774072-1.291926c.487702-.487702 1.246938-1.729083 1.246938-1.729083z"/><path d="m425.032152 128.34572s1.000106 1.574208 1.633088 2.20719c.652467.652466 2.223257 1.649154 2.223257 1.649154s-1.598365 1.054344-2.223257 1.679236c-.660556.660556-1.633088 2.177109-1.633088 2.177109s-.979483-1.564865-1.591727-2.177109c-.673204-.673204-2.264618-1.679236-2.264618-1.679236s1.601726-.986262 2.264618-1.649154c.622556-.622556 1.591727-2.20719 1.591727-2.20719z"/><path d="m409.167281 49.5617403s1.000106 1.5742084 1.633088 2.2071904c.652467.6524662 2.223257 1.6491543 2.223257 1.6491543s-1.598365 1.0543433-2.223257 1.6792354c-.660556.6605562-1.633088 2.1771093-1.633088 2.1771093s-.979483-1.564865-1.591727-2.1771093c-.673204-.6732039-2.264618-1.6792354-2.264618-1.6792354s1.601726-.9862623 2.264618-1.6491543c.622556-.6225562 1.591727-2.2071904 1.591727-2.2071904z"/><path d="m16.9906703 164.795608s.6335372.997214 1.0345121 1.398189c.4133177.413317 1.4083656 1.044689 1.4083656 1.044689s-1.0125154.667895-1.4083656 1.063745c-.4184423.418442-1.0345121 1.379133-1.0345121 1.379133s-.6204726-.991295-1.0083109-1.379133c-.4264543-.426454-1.4345668-1.063745-1.4345668-1.063745s1.0146447-.624767 1.4345668-1.044689c.3943705-.394371 1.0083109-1.398189 1.0083109-1.398189z"/><path d="m53.0027649 150.627977s.7481111 1.177557 1.2216015 1.651047c.4880653.488066 1.6630657 1.23362 1.6630657 1.23362s-1.1956268.788682-1.6630657 1.256121c-.4941168.494117-1.2216015 1.628546-1.2216015 1.628546s-.732684-1.170568-1.190662-1.628546c-.5035777-.503578-1.6940053-1.256121-1.6940053-1.256121s1.1981412-.737755 1.6940053-1.23362c.4656916-.465691 1.190662-1.651047 1.190662-1.651047z"/><path d="m280.177306 26.1058394s.748111 1.1775574 1.221601 1.6510479c.488065.4880653 1.663066 1.2336194 1.663066 1.2336194s-1.195627.788682-1.663066 1.2561209c-.494117.4941168-1.221601 1.6285464-1.221601 1.6285464s-.732684-1.1705683-1.190662-1.6285464c-.503578-.5035777-1.694006-1.2561209-1.694006-1.2561209s1.198142-.7377553 1.694006-1.2336194c.465691-.4656917 1.190662-1.6510479 1.190662-1.6510479z"/><path d="m361.054866 44.218913s.748111 1.1775574 1.221602 1.6510479c.488065.4880653 1.663065 1.2336194 1.663065 1.2336194s-1.195626.788682-1.663065 1.2561209c-.494117.4941169-1.221602 1.6285464-1.221602 1.6285464s-.732684-1.1705683-1.190662-1.6285464c-.503577-.5035777-1.694005-1.2561209-1.694005-1.2561209s1.198141-.7377553 1.694005-1.2336194c.465692-.4656916 1.190662-1.6510479 1.190662-1.6510479z"/><path d="m158.265153 39.9168832s.593982.9349513.969921 1.3108909c.387512.3875117 1.320433.979463 1.320433.979463s-.949298.6261939-1.320433.9973287c-.392316.3923165-.969921 1.2930253-.969921 1.2930253s-.581733-.9294021-.945356-1.2930253c-.399828-.3998281-1.344998-.9973287-1.344998-.9973287s.951294-.5857593 1.344998-.979463c.369748-.3697476.945356-1.3108909.945356-1.3108909z"/><path d="m275.002284 106.994387s.593982.934952.969922 1.310891c.387511.387512 1.320432.979463 1.320432.979463s-.949298.626194-1.320432.997329c-.392317.392316-.969922 1.293025-.969922 1.293025s-.581732-.929402-.945355-1.293025c-.399829-.399828-1.344998-.997329-1.344998-.997329s.951294-.585759 1.344998-.979463c.369747-.369747.945355-1.310891.945355-1.310891z"/></g><g stroke-linecap="round" stroke-width="2"><g stroke="#dae2e6"><path d="m43.9811877 24.5276627v-10.1367361" fill="#dae2e6"/><path d="m53.4961948 30.1421761 6.3040482-6.3040482" fill="#dae2e6"/><path d="m32.8959946 28.9835148-5.1962605-5.1962605" fill="#dae2e6"/><path d="m438.789058 101.259013 4.917333-3.9444564" fill="#dae2e6"/><path d="m196.855569 58.3625726-5.518216-5.5182163" fill="#dae2e6"/><path d="m25.9745827 131.312292-5.5182163-5.518216" fill="#dae2e6"/><path d="m63.0151973 182.144565-7.2676036 4.270066" fill="#dae2e6"/><path d="m420.328386 185.066189h4.786429" fill="#dae2e6"/><path d="m64.7100772 167.798073c1.31095-2.196324 2.0641772-4.764079 2.0641772-7.50776 0-8.101769-6.5677821-14.669552-14.669552-14.669552-6.2891823 0-11.6539848 3.957741-13.7396927 9.518507" stroke-linejoin="round"/><path d="m478.362809 181.015803c1.31095-2.196325 2.064177-4.76408 2.064177-7.50776 0-8.10177-6.567782-14.669552-14.669552-14.669552-6.289182 0-11.653984 3.95774-13.739692 9.518506" stroke-linejoin="round"/><path d="m179.36868 24.5801479c0 2.198616 1.782331 3.9809465 3.980947 3.9809465s3.980946-1.7823305 3.980946-3.9809465c0-2.1986161-1.78233-3.9809466-3.980946-3.9809466" stroke-linejoin="round"/><ellipse cx="429.013099" cy="168.565798" rx="3.980947" ry="3.980947" stroke-linejoin="round"/><ellipse cx="305.733189" cy="3.727194" rx="2.768302" ry="2.768302" stroke-linejoin="round"/><path d="m442.836382 124.355376c0-3.59787-2.916649-6.51452-6.514519-6.51452s-6.51452 2.91665-6.51452 6.51452" stroke-linejoin="round"/><path d="m53.0027649 175.863322c0-3.948227-1.037087-7.654229-2.8537082-10.860454m-3.7553807-4.88607c-3.9804664-3.906958-9.4358061-6.316487-15.4539213-6.316487-11.4444738 0-20.8537535 8.713702-21.95524168 19.868507" stroke-linejoin="round"/><path d="m420.040234 64.3092951c.189586-1.163602.288152-2.3577716.288152-3.5749627 0-12.185064-9.877946-22.0630101-22.06301-22.0630101-9.964563 0-18.386251 6.6058323-21.124737 15.6771691" stroke-linejoin="round"/><path d="m424.380705 70.0375842c0-3.071297-2.489779-5.5610752-5.561076-5.5610752s-5.561075 2.4897782-5.561075 5.5610752" stroke-linejoin="round"/><path d="m17.9938435 178.376218c-1.6412073-2.579775-4.5255296-4.291342-7.8096095-4.291342-5.10825516 0-9.24931413 4.141059-9.24931413 9.249314" stroke-linejoin="round"/><path d="m452.847485 138.59321c1.235885-1.572508 1.973006-3.555538 1.973006-5.710732 0-5.108255-4.141059-9.249314-9.249314-9.249314-3.39713 0-6.366506 1.831431-7.974645 4.560809" stroke-linejoin="round"/></g><path d="m30.7035276 198.182036h413.1996224" fill="#404f54" stroke="#404f54"/></g></g><g transform="translate(20.071243 31.934637)"><path d="m93.0764669 100.584147c0-2.2102273 1.7943591-4.0019703 4.0022956-4.0019703h9.4788335c4.417204 0 7.998056 3.5823823 7.998056 7.9958173v61.118573h-21.4791851z" fill="#f5f6f7" stroke="#404f54" stroke-linecap="round" stroke-width="2"/><path d="m106.373105 97.16774h2.175487v69.114391h-2.175487z" fill="#e6ebee"/><path d="m110.464378 97.16774h2.175487v69.114391h-2.175487z" fill="#e6ebee"/><path d="m93.0764669 100.584147c0-2.2102273 1.7943591-4.0019703 4.0022956-4.0019703h9.4788335c4.417204 0 7.998056 3.5823823 7.998056 7.9958173v61.118573h-21.4791851z" stroke="#404f54" stroke-linecap="round" stroke-width="2"/><rect fill="#f5f6f7" height="12.079784" rx="4" stroke="#404f54" stroke-linecap="round" stroke-width="2" width="43.497347" x="16.848934" y="96.582177"/><rect fill="#f5f6f7" height="12.079784" rx="4" stroke="#404f54" stroke-linecap="round" stroke-width="2" transform="matrix(0 1 -1 0 95.019851 49.395163)" width="72.620101" x="-13.497706" y="66.167615"/><rect fill="#f5f6f7" height="69.114391" rx="4" width="52.163734" x="52.163734" y="96.582177"/><path d="m57.6621337 97.0886821c.2493133-.0484497.5068582-.0738326.7703067-.0738326h38.534612c.3721916 0 .7325383.0505532 1.0745069.1451646-2.4952414 7.7764009-10.5845123 13.4726759-20.1783563 13.4726759-9.6231544 0-17.7325284-5.731134-20.2010693-13.5440079z" fill="#e6edf1"/><g fill="#e6ebee"><path d="m19.433548 35.798641h2.175487v72.620101h-2.175487z"/><path d="m23.524821 35.798641h2.175487v72.620101h-2.175487z"/><path d="m39.824989 92.872702h2.045637v23.524821h-2.045637z" transform="matrix(0 1 -1 0 145.482921 63.787305)"/><path d="m39.824989 88.781429h2.045637v23.524821h-2.045637z" transform="matrix(0 1 -1 0 141.391648 59.696032)"/></g><path d="m66.483191 97.16774h3.198305v68.528827h-3.198305z" fill="#dbe2e7"/><path d="m58.300644 97.16774h3.198305v68.528827h-3.198305z" fill="#dbe2e7"/><path d="m86.939557 97.16774h3.198305v68.528827h-3.198305z" fill="#dbe2e7"/><path d="m95.122104 97.16774h3.198305v68.528827h-3.198305z" fill="#dbe2e7"/><g stroke-linecap="round" stroke-width="2"><g stroke="#404f54"><path d="m88.36541 118.60797h10.772554v14.527716h-10.772554z" fill="#85dad2"/><path d="m104.327468 115.795719v45.817253c0 2.255307-1.825948 4.083595-4.0932 4.083595h-43.9773331c-2.2606123 0-4.0932007-1.83084-4.0932007-4.09088v-60.932629c0-2.2593315 1.8259486-4.0908813 4.0932007-4.0908813h43.9773331c2.260612 0 4.0932 1.8248853 4.0932 4.0982203"/><path d="m88.4812758 122.898513h9.909459" fill="#404f54"/><path d="m30.4393328 23.3480936v-18.35407194h-.5240905-3.1440185v-4.44265866h-5.4589433v.80806779 3.25840593h-4.2764527v5.51961328h-3.9548623l.2666617 15.3224337s.5407316 7.1640042 6.1287624 7.1640042" fill="#f5f6f7"/></g><path d="m6.13691 16.365093h32.730186v5.114092h-32.730186z" fill="#f5f6f7" stroke="#1ea69a"/><path d="m29.7820922 33.234104 4.423889-10.0808534-10.3035961-5.6115169s-2.1395282 5.1280754 2.1914682 8.0082479" fill="#f5f6f7" stroke="#404f54"/><path d="m17.2360868 42.6232565h11.2584753" fill="#404f54" stroke="#404f54"/></g><rect fill="#586569" height="5.114092" rx="2.557046" width="5.114092" x="22.502003" y="39.889914"/><rect height="12.079784" rx="4" stroke="#404f54" stroke-linecap="round" stroke-width="2" transform="matrix(0 1 -1 0 95.019851 49.395163)" width="72.620101" x="-13.497706" y="66.167615"/><path d="m5.09636207 16.4172828-4.20439258 2.727337 4.14577506 2.3867546" fill="#f5f6f7" stroke="#1ea69a" stroke-linecap="round" stroke-width="2"/></g><g transform="translate(59.961157 39.094365)"><g stroke-linecap="round" stroke-width="2"><g stroke="#404f54"><path d="m61.5227457 17.943226s-.466907-9.64864734-3.3563006-11.58051822c-2.8893936-1.93187089-6.0349934-2.44925437-6.5584952-.64166258-.5235018 1.80759178 0 6.3374696 0 6.3374696s-4.4805485-5.79484791-13.0951937-8.37067576c-8.6146451-2.57582785-17.1784315-3.92454294-21.2849955-3.06376673-4.106564.8607762-8.27851795 5.01628707-5.9049782 7.67050635 2.3735397 2.65421924 7.2712836 2.65421924 7.2712836 2.65421924s-9.87234971 3.0901522-14.56321673 5.7879648c-4.69086702 2.6978125-4.18648505 8.3408487-2.57506305 9.7778975 1.61142199 1.4370489 8.30910975.4519936 8.30910975.4519936s-2.25729094 8.5171338-1.78961911 13.9192597 1.96437465 10.8444035 2.45957904 12.8565778c.4952045 2.0121744 2.6863407 2.7150205 2.6863407 2.7150205l53.3367679.8898384s2.8465651-7.7764304 2.8465651-12.1189335c0-4.3425032-.2760908-10.6627648-.899016-13.9670594-.6229251-3.3042946-1.9475491-6.944334-1.9475491-6.944334s3.4782853-.5590648 5.0331125-.5590648-.8772193-5.2017497-3.1716027-5.8147325c-2.2943835-.6129828-6.7967287 0-6.7967287 0z" fill="#85dad3"/><ellipse cx="13.73418" cy="59.881879" fill="#f5f6f7" rx="5.84456" ry="5.84456"/><ellipse cx="64.638901" cy="59.881879" fill="#f5f6f7" rx="5.84456" ry="5.84456"/><path d="m36.9702875 99.828666v57.061059" fill="#f5f6f7"/><path d="m41.0615608 99.828666v57.061059" fill="#f5f6f7" stroke-dasharray="8 8"/><path d="m48.6453263 106.406879c1.2735137-1.852997 2.0188393-4.097723 2.0188393-6.5166809v-.875153c0-6.3565463-5.1517195-11.5135532-11.5066876-11.5135532-6.3563654 0-11.5066877 5.1547933-11.5066877 11.5135532v.875153c0 2.4179219.7454088 4.6622819 2.01891 6.5152669 1.2634103-4.038566 5.0326626-6.9690395 9.4877777-6.9690395 4.4543415 0 8.2243462 2.9322535 9.4878483 6.9704535z" fill="#e6ebee"/><rect fill="#f5f6f7" height="20.180212" rx="5.62721" width="11.254421" x="33.530268" y="78.980059"/><rect fill="#f5f6f7" height="69.135893" rx="23.494487" width="46.988974" x="15.662991" y="19.578739"/><path d="m35.9754369 52.6976174v15.9944h4.769955" fill="#f5f6f7" stroke-linejoin="round"/></g><rect fill="#f5f6f7" height="16.318332" rx="8.159166" stroke="#1ea69a" width="16.849952" x="19.029617" y="48.7886"/><rect fill="#f5f6f7" height="16.318332" rx="8.159166" stroke="#1ea69a" width="16.849952" x="41.740954" y="48.7886"/></g><ellipse cx="49.905135" cy="56.603205" fill="#1f5f59" rx="2.133012" ry="2.133012"/><ellipse cx="27.976947" cy="56.603205" fill="#1f5f59" rx="2.133012" ry="2.133012"/><g fill="#f5f6f7" stroke-linecap="round" stroke-width="2"><path d="m12.1403478 52.7570536h6.192541m17.6736359 0h5.7000133m17.1015697 0h7.1547353" stroke="#1ea69a"/><path d="m35.4719886 74.87685c0 2.2356497 1.8123522 4.0480019 4.048002 4.0480019 2.2356497 0 4.0480019-1.8123522 4.0480019-4.0480019" stroke="#1ea69a"/><path d="m45.454031 39.5758206c0 2.6605989 2.1568416 4.8174405 4.8174405 4.8174405 2.660599 0 4.8174405-2.1568416 4.8174405-4.8174405" stroke="#404f54" transform="matrix(-1 0 0 -1 100.542944 83.969082)"/><path d="m22.7426938 39.5758206c0 2.6605989 2.1568416 4.8174405 4.8174405 4.8174405s4.8174405-2.1568416 4.8174405-4.8174405" stroke="#404f54" transform="matrix(-1 0 0 -1 55.120268 83.969082)"/></g></g><g transform="translate(274.753004 128.079559)"><g stroke="#404f54" stroke-linecap="round" stroke-width="2"><path d="m51.1409159 4.43922485c0-2.21022701 1.7943591-4.00197002 4.0022956-4.00197002h9.4788335c4.4172041 0 7.9980556 3.58238199 7.9980556 7.9958175v61.11857327h-21.4791847z" fill="#85dad2"/><path d="m0 8.43307233c0-4.41596807 3.58303985-7.9958175 7.99805559-7.9958175h5.48307351c4.4172041 0 7.9980556 3.58238199 7.9980556 7.9958175v61.11857327h-21.4791847z" fill="#85dad2"/><path d="m51.1409159 4.43922485c0-2.21022701 1.7943591-4.00197002 4.0022956-4.00197002h9.4788335c4.4172041 0 7.9980556 3.58238199 7.9980556 7.9958175v61.11857327h-21.4791847z"/></g><rect fill="#f5f6f7" height="69.114391" rx="4" width="52.163734" x="10.228183" y=".437255"/><path d="m20.2469955 1.12582203c.3994647-.13322483.8273112-.20538116 1.272654-.20538116h30.6211776c.5357837 0 1.0470084.10482226 1.5141636.2952251-2.1350913 6.36420728-8.7990019 11.00650783-16.6890963 11.00650783-7.9271757 0-14.616615-4.68603819-16.7188989-11.09635177z" fill="#e6ebee"/><path d="m27.0096442.43725483h20.2043943v2.54414475c0 5.58009154-4.521681 10.10364952-10.1021972 10.10364952-5.5792894 0-10.1021971-4.51509316-10.1021971-10.10364952z" fill="#85dad2"/><path d="m47.0496426 20.4563664c0 2.8107815 2.2785886 5.0893701 5.0893702 5.0893701 2.8107815 0 5.0893701-2.2785886 5.0893701-5.0893701" stroke="#85dad2" stroke-linecap="round" stroke-width="2"/><path d="m50.1180976 20.4563664c.5648869 0 1.0228183-.4579314 1.0228183-1.0228184 0-.5648869-.4579314-1.0228183-1.0228183-1.0228183-.564887 0-1.0228183.4579314-1.0228183 1.0228183 0 .564887.4579313 1.0228184 1.0228183 1.0228184zm4.0912732 0c.564887 0 1.0228184-.4579314 1.0228184-1.0228184 0-.5648869-.4579314-1.0228183-1.0228184-1.0228183-.5648869 0-1.0228183.4579314-1.0228183 1.0228183 0 .564887.4579314 1.0228184 1.0228183 1.0228184z" fill="#85dad2"/><path d="m62.3919174 19.650797v45.8172527c0 2.2553078-1.8259487 4.0835959-4.0932007 4.0835959h-43.9773328c-2.2606123 0-4.0932007-1.83084-4.0932007-4.0908809v-47.1788861m0-13.75374287c0-2.25933113 1.8259486-4.0908809 4.0932007-4.0908809h43.9773328c2.2606123 0 4.0932007 1.82488527 4.0932007 4.09822026" stroke="#404f54" stroke-linecap="round" stroke-width="2"/></g><g transform="translate(279.867096 43.185639)"><g fill="#f5f6f7" stroke="#404f54" stroke-linecap="round" stroke-width="2"><ellipse cx="6.574451" cy="52.722151" rx="5.84456" ry="5.84456"/><ellipse cx="57.479173" cy="52.722151" rx="5.84456" ry="5.84456"/><path d="m29.3207918 92.0604408v61.7572162"/><rect height="20.180212" rx="5.62721" width="11.254421" x="26.370539" y="71.820331"/><rect height="69.135893" rx="23.494487" width="46.988974" x="8.503263" y="12.419011"/><path d="m28.8157086 51.8888068v11.6891191h4.7699551" stroke-linejoin="round"/></g><circle cx="42.745407" cy="54.557569" fill="#404f54" r="2.133012"/><ellipse cx="20.817219" cy="54.557569" fill="#404f54" rx="2.133012" ry="2.133012"/><g stroke-linecap="round" stroke-width="2"><path d="m29.3768011 71.3617942c.7936548.5404687 1.7524824.8563951 2.7850986.8563951 2.7360922 0 4.9541332-2.218041 4.9541332-4.9541331" fill="#f5f6f7" stroke="#1ea69a"/><path d="m38.2943028 43.6670938c0 2.660599 2.1568416 4.8174405 4.8174405 4.8174405s4.8174405-2.1568415 4.8174405-4.8174405" fill="#f5f6f7" stroke="#404f54" transform="matrix(-1 0 0 -1 86.223486 92.151628)"/><path d="m15.5829656 43.6670938c0 2.660599 2.1568416 4.8174405 4.8174405 4.8174405s4.8174405-2.1568415 4.8174405-4.8174405" fill="#f5f6f7" stroke="#404f54" transform="matrix(-1 0 0 -1 40.800812 92.151628)"/><path d="m17.1461907 28.5545473s9.356907 2.464942 15.0523269 2.464942c5.69542 0 14.7911943-2.464942 14.7911943-2.464942s2.3792512 5.296646 3.4030683 7.314256c1.0238172 2.01761 5.7303796 10.4346695 5.7303796 10.4346695l3.9714118.3885829 1.4872817-15.6725664s.1188617-4.9817792-1.4872817-8.3952384c-1.2468755-2.6499243-5.5876846-6.1495696-7.0168933-7.3511839-1.3023432-1.0949515-4.346839-2.8894392-7.8059816-5.592909-5.2268658-4.08502206-11.1161573-9.24290317-11.1161573-9.24290317s-.3063348 3.75772529 0 5.30336013c.3042931 1.53533288 1.8318836 3.93954304 1.8318836 3.93954304s-6.9078316-4.96334401-10.7685589-6.70578374c-2.4196834-1.09206176-8.0726734-1.79772075-8.0726734-1.79772075l5.5166265 9.63820029s-5.0261858-3.19917245-8.5441288-4.1141116c-2.9855434-.77647381-10.96633038 0-10.96633038 0l6.66729714 7.619751s-5.78895159 4.857125-6.66729714 7.2261324c-.7630914 2.0581527 0 8.4565053 0 8.4565053l1.60314785 16.1811653 3.98239906.1057482 5.38078347-10.4212411z" fill="#e6ebee" stroke="#404f54"/></g></g><g transform="translate(195.045592 120.495581)"><g stroke="#404f54" stroke-linecap="round" stroke-width="2"><path d="m58.3006441 4.43597585c0-2.20843264 1.7943591-3.99872102 4.0022956-3.99872102h9.4788335c4.4172041 0 7.9980556 3.58053025 7.9980556 8.00197377v68.628973h-21.4791847z" fill="#f5f6f7"/><path d="m66.4831907.43725483h5.2985825c4.4172041 0 7.9980556 3.58238199 7.9980556 7.9958175v25.31993217h-13.2966381z" fill="#ffaa83"/><path d="m7.07049619 8.36919834c.61416845-4.38069144 4.69833621-7.93194351 9.11173491-7.93194351h6.0680627l-7.488437 53.41292227c-.3833461 2.7343004-2.9231859 4.9508889-5.69348123 4.9508889h-4.06900389c-2.76107674 0-4.68859791-2.2166622-4.30526213-4.9508889z" fill="#f5f6f7"/><path d="m17.8286682 31.9754713 4.4216256-31.53821647h-6.0680627c-4.4133987 0-8.49756646 3.55125207-9.11173491 7.93194351l-2.8986327 20.67513466z" fill="#ffaa83"/><path d="m58.3006441 4.43597585c0-2.20843264 1.7943591-3.99872102 4.0022956-3.99872102h9.4788335c4.4172041 0 7.9980556 3.58053025 7.9980556 8.00197377v68.628973h-21.4791847z"/></g><rect fill="#f5f6f7" height="76.630947" rx="4" width="52.163734" x="17.387911" y=".437255"/><path d="m27.7348165 1.6592869c.3994646-.13322484.8273112-.20538117 1.272654-.20538117h30.6211775c.5357838 0 1.0470084.10482227 1.5141637.2952251-2.1350914 6.36420729-8.7990019 11.00650777-16.6890963 11.00650777-7.9271757 0-14.616615-4.68603813-16.7188989-11.0963517z" fill="#e6ebee"/><path d="m31.9838962 18.4947206c-.7035416-1.5028115.0654147-2.721081 1.7256332-2.721081h15.410953c1.6565825 0 2.4380127 1.2271302 1.754429 2.721081l-8.0924509 17.6857987c-.6876381 1.5028115-1.8119602 1.5101847-2.5189536 0z" fill="#dae2e6" opacity=".5" transform="matrix(-1 0 0 -1 82.845452 53.084034)"/><path d="m37.3014119 23.6396126c-.8124277-1.4425304-.1283832-2.6119324 1.5220141-2.6119324h18.0295902c1.6530128 0 2.3464011 1.1747216 1.5493471 2.6226859l-8.9831754 16.3192424c-.797332 1.4484694-2.1052961 1.4479643-2.9147277.0107535z" fill="#dae2e6" opacity=".5" transform="matrix(-1 0 0 -1 95.692162 62.084798)"/><path d="m69.5516456 21.7403715v50.8001215c0 2.5005844-1.8259486 4.5277086-4.0932007 4.5277086h-43.9773328c-2.2606123 0-4.0932007-2.0299536-4.0932007-4.5357859v-52.7140685m0-14.84530651c0-2.50504536 1.8259486-4.53578586 4.0932007-4.53578586h43.9773328c2.2606123 0 4.0932007 2.02335121 4.0932007 4.54392342" stroke="#404f54" stroke-linecap="round" stroke-width="2"/><path d="m18.356752 56.504419h24.93103v8h-24.93103z" fill="#dae2e6"/><rect fill="#f5f6f7" height="12.27382" rx="3" stroke="#404f54" stroke-linecap="round" stroke-width="2" width="40.879771" x="1.451323" y="47.049643"/><path d="m44.6248181 57.0752197v4.0376687c0 .549037.4430157 1.089355.9857408 1.2060253l7.7509306 1.6662264c.5444096.1170323 1.4218681.0730686 1.943031-.0928389l5.4079292-1.7215653c.5286968-.1683058 1.1770399-.7024477 1.4373686-1.1735908l1.7251461-3.122171c.2651399-.4798505.4800783-1.3104852.4800783-1.873072v-9.2739201l-3.9260254 10.8032924-5.5832519 1.9245606z" fill="#dae2e6"/><g fill="#f5f6f7" stroke="#404f54" stroke-linecap="round" stroke-width="2"><path d="m45.1423462 46.9152978s4.5412534-4.9367964 5.1645333-7.9533114c.6232799-3.0165149.3286203-4.6131703.3286203-4.6131703s5.0261931.4829421 5.5840486 4.9792474-.9643858 6.204332-.9643858 6.204332"/><path d="m45.4894451 57.1964198 8.9936096 2.3313066 6.0170483-1.5232401 3.0245058-10.965831s-3.5184351-2.9925426-4.5107886-2.9925426" stroke-linejoin="round"/></g></g><g transform="translate(207.246996 29.303437)"><g stroke="#404f54"><ellipse cx="6.574451" cy="55.790606" fill="#f5f6f7" rx="5.84456" ry="5.84456" stroke-linecap="round" stroke-width="2"/><ellipse cx="57.479173" cy="55.790606" fill="#f5f6f7" rx="5.84456" ry="5.84456" stroke-linecap="round" stroke-width="2"/><path d="m14.3154611 74.0354654s-4.0588108 7.3095551-.8160572 8.4297609 6.739214-3.3206636 6.739214-3.3206636-2.9975369 5.4282287 0 7.5337961 9.749736-2.7033768 9.749736-5.1185864c0-2.4152097 6.6652994-.2027658 6.6652994-.2027658s1.3544352 4.719048 4.3619606 5.3213522c3.0075253.6023041 4.5267701-.5104103 4.5267701-3.2687236s-1.5192448-4.8104424-1.5192448-4.8104424 5.4117477 4.5991865 7.6082101 2.9605796c2.021273-1.507912 1.6955411-5.0681447-1.1506706-7.524307-2.8462117-2.4561624.2188472-1.4992818 0-1.6630786-2.74383-2.0536274-36.1652176 1.6630786-36.1652176 1.6630786z" fill="#dae2e6" stroke-linecap="round" stroke-width="2"/><rect fill="#f5f6f7" height="20.180212" rx="5.62721" stroke-linecap="round" stroke-width="2" width="11.254421" x="26.370539" y="76.934423"/><rect fill="#f5f6f7" height="69.135893" rx="23.494487" stroke-linecap="round" stroke-width="2" width="46.988974" x="8.503263" y="15.487466"/><rect fill="#f5f6f7" height="9.205365" rx="3" stroke-linecap="round" stroke-width="2" width="10.445932" x="26.484402"/></g><path d="m9.4862903 38.7504708v6.9427289s10.3208261-13.2084899 23.2958359-12.0478309c12.9750097 1.1606591 21.8177934 11.3204213 21.8177934 11.3204213l-.2766803-15.0108403-20.9617824-8.3167089-22.6228634 6.9619567z" fill="#dae2e6"/><g stroke-linecap="round" stroke-width="2"><path d="m59.1584466 44.8881405v-14.92742c0-14.3612915-11.6438228-26.00433877-26.0072062-26.00433877h-2.3069813c-14.3705733 0-26.00720617 11.64253907-26.00720617 26.00433877v14.928639c4.82548342-9.0325 14.34743037-15.1787456 25.30604197-15.1787456h3.7093097c10.9581385 0 20.4804129 6.1447242 25.3060434 15.1775293z" fill="#f5f6f7" stroke="#404f54"/><path d="m4.66433909 50.192886c0-14.1757006 11.49327661-25.6673764 25.67269461-25.6673764h3.3214321c14.1786377 0 25.6726946 11.488559 25.6726946 25.6673764" stroke="#404f54"/><path d="m29.838527 49.9460463v14.6546979h4.769955" fill="#f5f6f7" stroke="#404f54" stroke-linejoin="round"/><path d="m28.3122604 70.7855767c0 2.2356498 1.8123522 4.048002 4.0480019 4.048002 2.2356498 0 4.048002-1.8123522 4.048002-4.048002" fill="#f5f6f7" stroke="#ffaa83"/><g stroke="#404f54"><path d="m26.9748582 9.7645529c-1.1020609 1.198891-1.7749097 2.7985709-1.7749097 4.555403m.7145174 3.0217713c.5516073 1.0965192 1.3940537 2.0215746 2.4260614 2.6738881 1.0396597.6571503 2.2717021 1.0374991 3.5925798 1.0374991 3.7186207 0 6.7331585-3.0145377 6.7331585-6.7331585s-3.0145378-6.73315858-6.7331585-6.73315858"/><path d="m38.2943028 39.5758206c0 2.6605989 2.1568416 4.8174405 4.8174405 4.8174405s4.8174405-2.1568416 4.8174405-4.8174405" fill="#f5f6f7" transform="matrix(-1 0 0 -1 86.223486 83.969082)"/><path d="m40.0717987 51.71557c0 1.6789151 1.3610296 3.0399446 3.0399446 3.0399446 1.6789151 0 3.0399446-1.3610295 3.0399446-3.0399446" fill="#f5f6f7" transform="matrix(-1 0 0 -1 86.223486 106.471084)"/><path d="m17.5697957 51.71557c0 1.6789151 1.3610296 3.0399446 3.0399446 3.0399446 1.6789151 0 3.0399446-1.3610295 3.0399446-3.0399446" fill="#f5f6f7" transform="matrix(-1 0 0 -1 41.21948 106.471084)"/><path d="m15.5829656 39.5758206c0 2.6605989 2.1568416 4.8174405 4.8174405 4.8174405s4.8174405-2.1568416 4.8174405-4.8174405" fill="#f5f6f7" transform="matrix(-1 0 0 -1 40.800812 83.969082)"/><path d="m21.8060194 90.549219c-1.0085286-1.3175174-.4873357-2.3855762 1.1824625-2.3855762h17.9291424c1.6615846 0 2.2043161 1.0749505 1.2108914 2.4027513l-8.2409162 11.0147199c-.9928277 1.327003-2.6110496 1.340177-3.6237762.017175z" fill="#dae2e6"/></g></g></g><g transform="translate(129.995994 138.78577)"><g fill="#f5f6f7"><rect height="50.857004" rx="3" stroke="#404f54" stroke-linecap="round" stroke-width="2" width="18.542577" y=".721167"/><rect height="58.602296" rx="3" stroke="#404f54" stroke-linecap="round" stroke-width="2" width="18.542577" x="45.004006" y=".721167"/><rect height="58.602296" rx="3" width="46.645609" x="8.58658" y=".721167"/></g><path d="m8.58657976 55.1409159v-11.2510015h26.62133054c1.6557219 0 2.9979497 1.3348195 2.9979497 3.0002822v5.250437c0 1.6570102-1.3373647 3.0002823-2.9979497 3.0002823z" fill="#dae2e6"/><path d="m15.7844145 1.36909829c.3994647-.13322483.8273112-.20538116 1.272654-.20538116h30.6211776c.5357837 0 1.0470083.10482227 1.5141636.2952251-2.1350913 6.36420728-8.7990019 11.00650777-16.6890963 11.00650777-7.9271757 0-14.616615-4.68603813-16.7188989-11.09635171z" fill="#dae2e6"/><path d="m8.58657976 3.7798168c0-1.68924574 1.37075275-3.05864998 3.06054874-3.05864998h40.5245119c1.6902944 0 3.0605488 1.37731078 3.0605488 3.06243063m0 13.42452165v39.0525874c0 1.6915134-1.3707528 3.0627559-3.0605488 3.0627559h-40.5245119c-1.69029441 0-3.06054874-1.3672609-3.06054874-3.0595049v-39.4823456" stroke="#404f54" stroke-linecap="round" stroke-width="2"/><rect fill="#f5f6f7" height="38.164907" rx="3" stroke="#404f54" stroke-linecap="round" stroke-width="2" width="30.427347" x="20.456366" y="21.158555"/><path d="m40.9676692 49.3983124v2.7220195c0 .550348.4424777 1.0695342.9889759 1.1597462l7.9337156 1.3096405v-4.486493z" fill="#dae2e6"/><path d="m20.4563664 55.1409159v-11.2510015h14.7515439c1.6557219 0 2.9979497 1.3348195 2.9979497 3.0002822v5.250437c0 1.6570102-1.3373647 3.0002823-2.9979497 3.0002823z" fill="#dae2e6"/><g stroke="#404f54" stroke-linecap="round" stroke-width="2"><g fill="#ffaa83"><rect height="4.091273" rx="2.045637" width="8.182547" x="16.365093" y="27.616095"/><rect height="4.091273" rx="2.045637" width="8.182547" x="16.365093" y="35.798641"/><rect height="4.091273" rx="2.045637" width="8.182547" x="16.365093" y="51.140916"/></g><rect fill="#f5f6f7" height="11.251002" rx="3" width="38.20586" y="39.889914"/><rect fill="#f5f6f7" height="11.251002" rx="2.226428" width="4.452856" x="28.638913" y="39.889914"/><circle cx="30.528355" cy="46.893448" fill="#ffaa83" r="3.935079"/><path d="m40.9676692 39.4763921 7.4933428-3.833571 2.2454059 3.308178" fill="#f5f6f7"/><path d="m41.916573 49.3949331 9.5469702 1.3474432 6.4006052-1.0148275v-13.2051481l-5.3538146-1.0084307" fill="#f5f6f7" stroke-linejoin="round"/><path d="m23.5832538 1.1396833v13.919104c0 1.1045989.8956449 2.0000532 1.9944458 2.0000532h2.9710704c1.101502 0 1.9944458-.8996694 1.9944458-2.004888v-5.33218704" fill="#e6ebee"/></g></g><g transform="translate(128.973176 68.211306)"><g stroke-linecap="round" stroke-width="2"><path d="m13.5678248 70.3212565s7.2606117-6.220813 20.9393084-6.220813c13.6786968 0 21.5116472 5.9561188 21.5116472 5.9561188l3.86903-16.3665914-2.0780991-13.7815779-17.344961-5.1800154-28.090047 1.9262746-2.95658424 18.1120747z" fill="#e6ebee" stroke="#404f54"/><path d="m62.9312942 29.877482v36.036501s0 8.2248629-5.8357578 10.5491776-9.7012919.9314239-9.7012919.9314239 3.6407937-2.8472106 5.4182402-5.118087 1.6076427-6.486506 1.6076427-6.486506v-33.2160827z" fill="#e6ebee" stroke="#404f54"/><ellipse cx="8.620088" cy="42.493968" fill="#f5f6f7" rx="5.84456" ry="5.84456" stroke="#1f5f59"/><g stroke="#404f54"><ellipse cx="56.456354" cy="42.493968" fill="#f5f6f7" rx="5.84456" ry="5.84456"/><rect fill="#ffaa83" height="16.865082" rx="8.432541" width="16.917229" x="25.584772" y="63.236375"/><rect fill="#f5f6f7" height="20.180212" rx="5.62721" width="11.254421" x="28.416176" y="54.43242"/><rect fill="#f5f6f7" height="54.549719" rx="21.182983" width="42.365967" x="12.860403" y="11.755111"/></g></g><path d="m54.236964 38.7775745s-7.7336671-3.4020695-10.9392978-5.9925767c-3.2056308-2.5905071-4.8437653-12.4406271-4.8437653-12.4406271l15.7830631 4.9565237z" fill="#dae2e6"/><path d="m11.1371331 39.5413171s10.2861162.6222811 15.9975177-1.4922759 13.1857662-8.2145096 15.2803463-11.9422029c2.0945801-3.7276934-2.3712604-8.5960688-2.3712604-8.5960688l-11.7124684 1.9767162-17.0682807 14.5721645z" fill="#dae2e6"/><path d="m41.0014466 23.2339426c-2.0946239 3.0132015-4.9740537 6.0696193-8.8710675 8.3191035-11.0382473 6.3716388-17.4233704 7.7475491-17.4233704 7.7475491l.31164 26.5533225s0 5.1265771 1.9667278 7.4354097 5.0506648 4.6126709 5.0506648 4.6126709-6.1463989 1.7329978-13.0664041 0c-6.92000518-1.7329978-8.68296839-10.3660239-8.68296839-10.3660239l.17263491-37.1201144s1.33137592-27.37104994 22.70543358-29.69569202c13.1916187-2.26682861 18.7773854 2.0270166 21.1422862 6.01993908.1099306-.05638571.2220289-.10907068.3363362-.1578536 5.0572566-2.15828468 10.8177628-1.72546933 15.4711888 5.22760234 4.653426 6.9530717 2.7478254 29.5508593 2.7478254 29.5508593l-7.9898166-5.483991s-5.5385538-2.5222592-9.6293277-6.6844505c-1.7583166-1.7890136-3.1856973-4.0087089-4.241783-5.958331z" fill="#e6ebee" stroke="#404f54" stroke-linecap="round" stroke-width="2"/><path d="m33.2216184 43.2240683v8.0800377h2.4096819" fill="#f5f6f7" stroke="#404f54" stroke-linecap="round" stroke-linejoin="round" stroke-width="2"/><path d="m30.357897 57.4889386c0 2.2356497 1.8123522 4.0480019 4.048002 4.0480019 2.2356497 0 4.0480019-1.8123522 4.0480019-4.0480019z" fill="#ffaa83"/><g fill="#f5f6f7" stroke="#404f54" stroke-linecap="round" stroke-width="2"><path d="m42.089535 41.4734366c0 1.694324 1.3735209 3.067845 3.067845 3.067845 1.694324 0 3.0678449-1.373521 3.0678449-3.067845" transform="matrix(-1 0 0 -1 90.31476 86.014718)"/><path d="m19.587532 41.4734366c0 1.694324 1.373521 3.067845 3.067845 3.067845s3.067845-1.373521 3.067845-3.067845" transform="matrix(-1 0 0 -1 45.310754 86.014718)"/></g></g><g transform="translate(347.373105 132.118892)"><g fill="#f5f6f7"><rect height="50.857004" rx="3" stroke="#404f54" stroke-linecap="round" stroke-width="2" width="18.542577" y="1.743985"/><rect height="63.847236" rx="3" stroke="#404f54" stroke-linecap="round" stroke-width="2" width="18.542577" x="45.004006" y="1.743985"/><rect height="63.847236" rx="3" width="46.645609" x="8.58658" y="1.743985"/></g><path d="m13.5933445 2.00584652c.3182275-.08143955.6517616-.12473893.9954543-.12473893h34.9386291c.4442266 0 .8715451.07229514 1.2708019.20579293-2.3282765 7.13617473-9.7695304 12.35536358-18.5893433 12.35536358-8.8531714 0-16.3173361-5.25874383-18.615542-12.43641757z" fill="#e6ebee"/><path d="m47.7568256.00898961-13.8969446 20.12674719-15.8067382-19.72196077" stroke="#404f54" stroke-linecap="round" stroke-width="2"/><path d="m49.3310069 51.7991554v5.3768743c0 1.6984748-1.375082 3.0753607-3.0662508 3.0753607h-25.3975711c-1.6934435 0-3.0662508-1.3808562-3.0662508-3.0586805v-32.0475464c0-1.6892626 1.3750821-3.0586804 3.0662508-3.0586804h25.3975711c1.6934436 0 3.0662508 1.3838553 3.0662508 3.070004v8.7912924" fill="#e7ebee" stroke="#404f54" stroke-linecap="round" stroke-width="2"/><path d="m8.63739299 56.6208537h40.84135441l1.9364776.3132324 3.2734375-1.2080078.1940918-4.3203125-4.2663574.2236328-42.23876953.3698731z" fill="#dae2e6"/><path d="m8.58657976 5.07638612c0-1.84043424 1.37075275-3.33240098 3.06054874-3.33240098h40.5245119c1.6902944 0 3.0605488 1.50058092 3.0605488 3.33652m0 14.62602436v42.5478172c0 1.8429049-1.3707528 3.3368745-3.0605488 3.3368745h-40.5245119c-1.69029441 0-3.06054874-1.4896316-3.06054874-3.3333325v-43.0160391" stroke="#404f54" stroke-linecap="round" stroke-width="2"/><path d="m49.3310069 51.7991554v5.3768743c0 1.6984748-1.375082 3.0753607-3.0662508 3.0753607h-25.3975711c-1.6934435 0-3.0662508-1.3808562-3.0662508-3.0586805v-32.0475464c0-1.6892626 1.3750821-3.0586804 3.0662508-3.0586804h25.3975711c1.6934436 0 3.0662508 1.3838553 3.0662508 3.070004v8.7912924" stroke="#404f54" stroke-linecap="round" stroke-width="2"/><g fill="#f5f6f7"><rect height="11.251002" rx="3" stroke="#404f54" stroke-linecap="round" stroke-width="2" width="38.20586" y="40.912733"/><path d="m41.6269076 41.0515723.4804449 9.0365599 9.0085922-1.0008437-.5503641-6.7631864-2.1874728-3.6348006z"/><g stroke="#404f54" stroke-linecap="round" stroke-width="2"><path d="m41.916573 50.4177514 9.5469702 1.3474432 6.4006052-1.0148275v-13.2051481l-5.3538146-1.0084307" stroke-linejoin="round"/><path d="m40.9676692 41.1689367 6.8654391-4.5032972 2.0572524 3.8861179"/></g></g></g><g transform="translate(351.464378 57.453155)"><g stroke="#404f54" stroke-linecap="round" stroke-width="2"><ellipse cx="6.574451" cy="47.608059" fill="#f5f6f7" rx="5.84456" ry="5.84456"/><ellipse cx="51.342263" cy="47.608059" fill="#f5f6f7" rx="5.84456" ry="5.84456"/><rect fill="#ffaa83" height="16.865082" rx="8.432541" width="16.917229" x="20.47068" y="68.350467"/><rect fill="#f5f6f7" height="20.180212" rx="5.62721" width="11.254421" x="23.302085" y="59.546511"/><rect fill="#ffaa83" height="16.865082" rx="8.432541" width="42.365967" x="7.746311" y="54.553839"/><rect fill="#ffaa83" height="23.900488" rx="11.950244" width="24.230072" x="16.814259" y=".918039"/><g fill="#f5f6f7"><rect height="54.549719" rx="21.182983" width="42.365967" x="7.746311" y="16.869203"/><path d="m28.1075268 48.3381599v8.0800377h2.409682" stroke-linejoin="round"/></g></g><path d="m19.1054271 26.2097194s4.878364 7.5617637 10.1173113 11.1641019c5.2389473 3.6023381 19.9238566 9.4168705 19.9238566 9.4168705v-11.319797l-26.0727527-10.4887572z" fill="#dae2e6"/><path d="m24.6220537 27.2145585s-3.0309983 5.3313406-4.6850873 6.7811656-11.1236486 8.2464727-11.1236486 8.2464727v-11.6223586l12.7158092-7.5594803z" fill="#dae2e6"/><path d="m25.2438054 62.6030302c0 2.2356497 1.8123522 4.0480019 4.048002 4.0480019 2.2356497 0 4.048002-1.8123522 4.048002-4.0480019z" fill="#ffaa83"/><circle cx="38.654134" cy="50.466295" fill="#404f54" r="2.133012"/><path d="m34.2030295 39.5758206c0 2.6605989 2.1568416 4.8174405 4.8174405 4.8174405 2.660599 0 4.8174405-2.1568416 4.8174405-4.8174405" fill="#f5f6f7" stroke="#404f54" stroke-linecap="round" stroke-width="2" transform="matrix(-1 0 0 -1 78.04094 83.969082)"/><ellipse cx="18.197767" cy="50.466295" fill="#404f54" rx="2.133012" ry="2.133012"/><g stroke="#404f54" stroke-linecap="round" stroke-width="2"><path d="m13.7466632 39.5758206c0 2.6605989 2.1568416 4.8174405 4.8174405 4.8174405s4.8174405-2.1568416 4.8174405-4.8174405" fill="#f5f6f7" transform="matrix(-1 0 0 -1 37.128208 83.969082)"/><path d="m21.5441184 27.2689032c3.6231538 2.5388294 8.1986794 5.5677839 12.3487245 7.7905919 8.5970677 4.6046801 16.6657458 6.4195833 16.6657458 6.4195833h4.7345301s.9201745-12.7637577-1.4683037-18.7172493c-1.8291833-4.5594001-6.1654025-8.8861722-9.8765894-10.5940991-4.8015032-2.20970185-12.2238775-5.2835651-20.3175267-1.2451403-.4163988.2077672-.813133.4245105-1.1911238.6487564-.0949123-.064824-.1924224-.1286689-.2925755-.1915069-7.660884-4.80658032-13.85699309 2.1073344-16.85975564 8.2381547-3.00276254 6.1308202-1.18490306 21.8650799-1.18490306 21.8650799l4.35940634-.7928157s7.41401516-5.6825661 10.47834516-9.7438565c.7007237-.9286997 1.6492588-2.2044723 2.6040259-3.6774984z" fill="#ffaa83"/></g></g><path d="m181.871826 190.465576 2.322144-.348633v3.057129l-2.322144.368775z" fill="#dae2e6"/></g></svg>