<svg width="20" height="15" viewBox="0 0 20 15" fill="none" xmlns="http://www.w3.org/2000/svg">
<path fill-rule="evenodd" clip-rule="evenodd" d="M8.17829 0.00536346L8.73274 0.871196C5.59084 2.44544 4.01992 3.93221 4.01992 5.33154C4.01992 5.92626 4.61133 6.51222 5.79416 7.08944C6.84762 7.61419 7.58225 8.13893 7.99809 8.66368C8.41393 9.18843 8.62185 9.87059 8.62185 10.7102C8.62185 11.8297 8.20139 12.7873 7.36047 13.5832C6.51956 14.379 5.51694 14.777 4.35259 14.777C3.05887 14.777 2.01004 14.2872 1.20609 13.3077C0.402134 12.3282 0.000162125 11.0513 0.000162125 9.47704C0.000162125 6.88828 1.03512 4.66687 3.10508 2.81276C3.80738 2.20055 4.49582 1.70642 5.1704 1.33035C5.84498 0.954278 6.8476 0.512621 8.17829 0.00536346ZM19.1287 0.00536346L19.6831 0.871196C16.5412 2.46293 14.9703 3.9497 14.9703 5.33154C14.9703 5.66388 15.0997 5.95686 15.3584 6.21049C15.6171 6.46412 16.0792 6.7571 16.7445 7.08944C17.761 7.57921 18.4864 8.09958 18.9207 8.65056C19.3551 9.20155 19.5722 9.88808 19.5722 10.7102C19.5722 11.8471 19.1564 12.8092 18.3247 13.5963C17.493 14.3834 16.495 14.777 15.3307 14.777C14.0185 14.777 12.9604 14.2872 12.1565 13.3077C11.3525 12.3282 10.9505 11.0513 10.9505 9.47704C10.9505 8.23513 11.2139 7.04572 11.7406 5.90876C12.2674 4.7718 13.0482 3.73981 14.0832 2.81276C15.2845 1.76326 16.9663 0.82747 19.1287 0.00536346Z" fill="#646464"/>
</svg>
