<svg height="231" viewBox="0 0 236 231" width="236" xmlns="http://www.w3.org/2000/svg" xmlns:xlink="http://www.w3.org/1999/xlink"><defs><rect id="a" height="25.127432" rx="6" width="13.530156" x="22.228113" y="11.597276"/><mask id="b" fill="#fff" height="25.127432" width="13.530156" x="0" y="0"><use xlink:href="#a"/></mask></defs><g fill="none" fill-rule="evenodd"><g fill="#ddecea"><circle cx="111.007202" cy="119.808009" opacity=".618999" r="93.65408"/><ellipse cx="136.984246" cy="102.705959" opacity=".335938" rx="93.65408" ry="93.65408"/></g><g stroke="#d3dfe5" stroke-linecap="round" stroke-width="2" transform="translate(1.631898 1.538337)"><g fill="#dae2e6"><path d="m60.7850167 19.8265186-4.1237085-4.1237085"/><path d="m217.715943 191.703247-4.123709-4.123708"/><path d="m4.67833558 59.4463921 5.0504909-2.9159023"/><path d="m15.6494149 114.301789 5.0504909-2.915902"/></g><g stroke-linejoin="round"><path d="m227.066868 46.891555c0 1.6430041 1.331918 2.9749221 2.974922 2.9749221s2.974922-1.331918 2.974922-2.9749221c0-1.643004-1.331918-2.974922-2.974922-2.974922"/><path d="m139.298233 3.00723761c0 1.64300408 1.331918 2.97492204 2.974922 2.97492204s2.974922-1.33191796 2.974922-2.97492204c0-1.64300407-1.331918-2.97492203-2.974922-2.97492203"/><ellipse cx="224.350101" cy="135.928966" rx="2.068725" ry="2.068725"/><circle cx="89.837878" cy="225.603781" r="2.068725"/><ellipse cx="2.069243" cy="148.806226" rx="2.068725" ry="2.068725"/><ellipse cx="149.621088" cy="210.657978" rx="2.068725" ry="2.068725"/><ellipse cx="112.256582" cy="76.145756" rx="2.068725" ry="2.068725"/></g></g><g transform="matrix(.96592583 .25881905 -.25881905 .96592583 160.243884 63.729202)"><path d="m.40154499 26.7993251v-10.4931702c0-3.1170943 2.52249256-5.6439985 5.64353945-5.6439985h66.85756046c3.1168408 0 5.6435394 2.5220026 5.6435394 5.6437176v92.825386c0 3.116939-2.5224925 5.643717-5.6435394 5.643717h-66.85756046c-3.11684077 0-5.64353945-2.525433-5.64353945-5.641699v-54.9172152m0-6.943168v-14.6874144" fill="#fff" stroke="#404f54" stroke-linecap="round" stroke-width="1.5"/><rect fill="#fff" height="17.131234" rx="8.565617" stroke="#404f54" stroke-linecap="round" stroke-width="1.5" width="51.431279" x="13.758225" y=".214983"/><rect fill="#e0eaef" height="10.445709" rx="5.222854" width="37.594205" x="20.676762" y="4.184931"/><path d="m37.4602565 108.258126h-26.08481c-3.11779834 0-5.64527327-2.521625-5.64527327-5.648164v-91.8961446h67.50477827v91.8961446c0 3.119395-2.5301463 5.648164-5.6450607 5.648164h-7.1614091m0 0h-22.9682252" fill="#fff" stroke="#404f54" stroke-linecap="round" stroke-width="1.5"/><path d="m14.361326 57.001515h-8.63115277v-46.4302729h67.50477827v46.4302729h-25.4233149m12.0934031 0h-45.916265" fill="#f3fffd" stroke="#404f54" stroke-linecap="round" stroke-width="1.5"/><rect fill="#e0eaef" height="3.803254" rx="1.901627" width="28.251622" x="14.367738" y="63.471194"/><rect height="8.333786" rx="4.166893" stroke="#e0eaef" stroke-width="1.5" width="49.394106" x="14.694279" y="71.77717"/><rect fill="#e0eaef" height="3.803254" rx="1.901627" width="28.251622" x="14.367738" y="85.368767"/><rect height="8.333786" rx="4.166893" stroke="#e0eaef" stroke-width="1.5" width="49.394106" x="14.694279" y="93.674743"/><rect fill="#ffaf8b" height="3.803254" rx="1.901627" width="26.341798" x="26.872658" y="47.57059"/></g><g transform="matrix(.96592583 .25881905 -.25881905 .96592583 180.921861 85.750862)"><ellipse cx="13.411699" cy="13.040375" fill="#fff" rx="12.98161" ry="12.98161"/><ellipse cx="15.22783" cy="14.856506" fill="#fff" rx="12.98161" ry="12.98161"/><ellipse cx="13.411699" cy="13.040375" rx="12.98161" ry="12.98161" stroke="#404f54" stroke-linecap="round" stroke-width="1.5"/></g><g transform="matrix(.96592583 .25881905 -.25881905 .96592583 186.603938 90.518081)"><g stroke="#404f54"><ellipse cx="1.410458" cy="11.629459" fill="#f5f6f7" rx="1.25387" ry="1.247341" stroke-linecap="round"/><ellipse cx="12.331363" cy="11.629459" fill="#f5f6f7" rx="1.25387" ry="1.247341" stroke-linecap="round"/><rect fill="#ff8f5c" height="4.306843" rx="2.153421" stroke-linecap="round" width="10.080836" x="1.824258" y="13.85362"/><ellipse cx="6.984571" cy="2.831583" fill="#ffa47b" rx="2.525748" ry="2.525748"/></g><path d="m9.38689295 2.04947194c.08011862.24625827.12342573.50912706.12342573.78211078 0 1.39493209-1.13081589 2.52574798-2.52574798 2.52574798-.62938029 0-1.20499365-.23020356-1.64723353-.61100413-.08011862-.24625826-.12342573-.50912706-.12342573-.78211077 0-1.39493209 1.13081589-2.52574798 2.52574798-2.52574798.62938029 0 1.20499365.23020356 1.64723353.61100412z" fill="#ff8f5c"/><ellipse cx="6.984571" cy="2.831583" rx="2.525748" ry="2.525748" stroke="#404f54"/><rect fill="#f5f6f7" height="4.306843" rx="1.20724" stroke="#404f54" stroke-linecap="round" width="2.414481" x="5.657435" y="15.327831"/><rect fill="#fff" height="13.399108" rx="5.040418" stroke="#404f54" stroke-linecap="round" width="10.080836" x="1.824258" y="4.006267"/><path d="m6.41263046 12.1391402v1.4296038h.41763346" stroke="#404f54" stroke-linecap="round" stroke-linejoin="round" stroke-width=".75"/><path d="m5.93553755 14.6257436c0 .4622583.37473438.8369926.83699267.8369926s.83699268-.3747343.83699268-.8369926" fill="#f5f6f7" stroke="#ff8f5c" stroke-linecap="round"/><path d="m5.29495507 4.25650233c-2.01253809.66125335-3.47069732 2.558711-3.47069732 4.79629957v1.633474c.39767047-.0876165 2.09446178-.461088 4.30871478-.94310449 2.53883836-.55267481 3.54086101-1.39703397 3.54086101-1.39703397s.47336566 1.23087611.82292876 1.85421656c.2995969.534241 1.0408278 1.323387 1.0408278 1.323387v-1.55423654s.1603195.05759244.3675036.07531744v-.99202c0-2.14935897-1.3405388-3.98335359-3.22973243-4.71131767-.91720469-.12259555-1.97807455-.08763825-3.20004963-.08763825-.06077845 0-.12089465.00089184-.18035657.00265635z" fill="#dae2e6"/><g stroke="#404f54"><g stroke-linecap="round" stroke-width=".75"><path d="m8.43005052 11.2682978c0 .3214742.26197043.5820806.58512734.5820806.3231569 0 .58512733-.2606064.58512733-.5820806" fill="#f5f6f7" transform="matrix(-1 0 0 -1 18.030356 23.536596)"/><path d="m4.13932646 11.2682978c0 .3214742.26197043.5820806.58512734.5820806.3231569 0 .58512733-.2606064.58512733-.5820806" fill="#f5f6f7" transform="matrix(-1 0 0 -1 9.448908 23.536596)"/><path d="m3.7617821 9.75812037c0 .52890043.4310028.95765903.9626717.95765903.53166889 0 .96267169-.4287586.96267169-.95765903" transform="matrix(-1 0 0 -1 9.448908 20.51624)"/><path d="m7.91477009 9.75812037c0 .52890043.43100279.95765903.96267169.95765903s.96267169-.4287586.96267169-.95765903" transform="matrix(-1 0 0 -1 17.754884 20.51624)"/></g><path d="m9.9492492 7.10884087s-1.24766613 1.03714091-3.78650449 1.58981571c-2.53883836.55267481-4.27742277.82643134-4.27742277.82643134l-.11927305 1.17126378h-1.08458229s-.48845777-3.37993517.35014052-4.86061696c.8385983-1.4806818 2.18304704-2.71452185 4.44370452-2.71452185s3.96993058-.11964174 5.23824366.85998265c1.2683131.97962438 2.1045149 2.75581575 2.1045149 4.03574276v2.5646471h-.9213411s-.8835768-.95713301-1.1831738-1.49137402c-.349563-.62334048-.7643061-1.98137051-.7643061-1.98137051z" fill="#ffa47b"/></g><path d="m1.95934996 9.51316431c.35639684-.0580692 1.9703523-.32840104 4.20339475-.81450773 2.53883836-.5526748 3.78650449-1.58981571 3.78650449-1.58981571s.4147431 1.35803003.7643061 1.98137051c.1462288.26075496.4315772.62225413.6854053.92403522 0-.72387659 0-1.46528087 0-1.8764608 0-.98405606-.6429034-2.34965885-1.61803028-3.10283095-.97512685-.7531721-2.28928035-.66118702-4.02735891-.66118702s-2.77174137.94862267-3.4164873 2.08702657c-.3065595.5412807-.3824569 1.83944643-.37773415 3.05236991z" fill="#ff8f5c"/><path d="m9.9492492 7.10884087s-1.24766613 1.03714091-3.78650449 1.58981571c-2.53883836.55267481-4.27742277.82643134-4.27742277.82643134l-.09079131 1.17126378h-1.11306403s-.48845777-3.37993517.35014052-4.86061696c.8385983-1.4806818 2.18304704-2.71452185 4.44370452-2.71452185s3.96993058-.11964174 5.23824366.85998265c1.2683131.97962438 2.1045149 2.75581575 2.1045149 4.03574276v2.5646471h-.9213411s-.8835768-.95713301-1.1831738-1.49137402c-.349563-.62334048-.7643061-1.98137051-.7643061-1.98137051z" stroke="#404f54"/><path d="m9.9492492 8.24147396s-1.24766613 1.03714091-3.78650449 1.58981571c-2.53883836.55267483-4.27742277.82643133-4.27742277.82643133l-.09079131 1.1712638h-1.11306403s-.48845777-3.37993518.35014052-4.86061698c.8385983-1.48068179 2.18304704-2.71452184 4.44370452-2.71452184s3.96993058-.11964174 5.23824366.85998264c1.2683131.97962439 2.1045149 2.75581576 2.1045149 4.03574276v2.56464702h-.9213411s-.8835768-.9571329-1.1831738-1.4913739c-.349563-.62334052-.7643061-1.98137054-.7643061-1.98137054z"/></g><g transform="matrix(.96592583 -.25881905 .25881905 .96592583 6.133041 77.479729)"><path d="m.40154499 26.7993251v-10.4931702c0-3.1170943 2.52249256-5.6439985 5.64353945-5.6439985h66.85756046c3.1168408 0 5.6435394 2.5220026 5.6435394 5.6437176v92.825386c0 3.116939-2.5224925 5.643717-5.6435394 5.643717h-66.85756046c-3.11684077 0-5.64353945-2.525433-5.64353945-5.641699v-54.9172152m0-6.943168v-14.6874144" fill="#fff" stroke="#404f54" stroke-linecap="round" stroke-width="1.5"/><rect fill="#fff" height="17.131234" rx="8.565617" stroke="#404f54" stroke-linecap="round" stroke-width="1.5" width="51.431279" x="13.758225" y=".214983"/><rect fill="#e0eaef" height="10.445709" rx="5.222854" width="37.594205" x="20.676762" y="4.184931"/><path d="m37.4602565 108.258126h-26.08481c-3.11779834 0-5.64527327-2.521625-5.64527327-5.648164v-91.8961446h67.50477827v91.8961446c0 3.119395-2.5301463 5.648164-5.6450607 5.648164h-7.1614091m0 0h-22.9682252" fill="#fff" stroke="#404f54" stroke-linecap="round" stroke-width="1.5"/><path d="m14.361326 57.001515h-8.63115277v-46.4302729h67.50477827v46.4302729h-25.4233149m12.0934031 0h-45.916265" fill="#f3fffd" stroke="#404f54" stroke-linecap="round" stroke-width="1.5"/><rect fill="#e0eaef" height="3.803254" rx="1.901627" width="28.251622" x="14.367738" y="63.471194"/><rect height="8.333786" rx="4.166893" stroke="#e0eaef" stroke-width="1.5" width="49.394106" x="14.694279" y="71.77717"/><rect fill="#e0eaef" height="3.803254" rx="1.901627" width="28.251622" x="14.367738" y="85.368767"/><rect height="8.333786" rx="4.166893" stroke="#e0eaef" stroke-width="1.5" width="49.394106" x="14.694279" y="93.674743"/><rect fill="#ffaf8b" height="3.803254" rx="1.901627" width="26.341798" x="26.872658" y="47.57059"/></g><g transform="matrix(.96592583 -.25881905 .25881905 .96592583 35.051524 86.212058)"><ellipse cx="13.411699" cy="13.040375" fill="#fff" rx="12.98161" ry="12.98161"/><ellipse cx="15.22783" cy="14.856506" fill="#fff" rx="12.98161" ry="12.98161"/><ellipse cx="13.411699" cy="13.040375" rx="12.98161" ry="12.98161" stroke="#404f54" stroke-linecap="round" stroke-width="1.5"/></g><g transform="matrix(.96592583 -.25881905 .25881905 .96592583 42.355957 87.499552)"><g stroke="#404f54"><ellipse cx="1.410458" cy="11.629459" fill="#f5f6f7" rx="1.25387" ry="1.247341" stroke-linecap="round"/><ellipse cx="12.331363" cy="11.629459" fill="#f5f6f7" rx="1.25387" ry="1.247341" stroke-linecap="round"/><rect fill="#ff8f5c" height="4.306843" rx="2.153421" stroke-linecap="round" width="10.080836" x="1.824258" y="13.85362"/><ellipse cx="6.984571" cy="2.831583" fill="#ffa47b" rx="2.525748" ry="2.525748"/></g><path d="m9.38689295 2.04947194c.08011862.24625827.12342573.50912706.12342573.78211078 0 1.39493209-1.13081589 2.52574798-2.52574798 2.52574798-.62938029 0-1.20499365-.23020356-1.64723353-.61100413-.08011862-.24625826-.12342573-.50912706-.12342573-.78211077 0-1.39493209 1.13081589-2.52574798 2.52574798-2.52574798.62938029 0 1.20499365.23020356 1.64723353.61100412z" fill="#ff8f5c"/><ellipse cx="6.984571" cy="2.831583" rx="2.525748" ry="2.525748" stroke="#404f54"/><rect fill="#f5f6f7" height="4.306843" rx="1.20724" stroke="#404f54" stroke-linecap="round" width="2.414481" x="5.657435" y="15.327831"/><rect fill="#fff" height="13.399108" rx="5.040418" stroke="#404f54" stroke-linecap="round" width="10.080836" x="1.824258" y="4.006267"/><path d="m6.41263046 12.1391402v1.4296038h.41763346" stroke="#404f54" stroke-linecap="round" stroke-linejoin="round" stroke-width=".75"/><path d="m5.93553755 14.6257436c0 .4622583.37473438.8369926.83699267.8369926s.83699268-.3747343.83699268-.8369926" fill="#f5f6f7" stroke="#ff8f5c" stroke-linecap="round"/><path d="m5.29495507 4.25650233c-2.01253809.66125335-3.47069732 2.558711-3.47069732 4.79629957v1.633474c.39767047-.0876165 2.09446178-.461088 4.30871478-.94310449 2.53883836-.55267481 3.54086101-1.39703397 3.54086101-1.39703397s.47336566 1.23087611.82292876 1.85421656c.2995969.534241 1.0408278 1.323387 1.0408278 1.323387v-1.55423654s.1603195.05759244.3675036.07531744v-.99202c0-2.14935897-1.3405388-3.98335359-3.22973243-4.71131767-.91720469-.12259555-1.97807455-.08763825-3.20004963-.08763825-.06077845 0-.12089465.00089184-.18035657.00265635z" fill="#dae2e6"/><g stroke="#404f54"><g stroke-linecap="round" stroke-width=".75"><path d="m8.43005052 11.2682978c0 .3214742.26197043.5820806.58512734.5820806.3231569 0 .58512733-.2606064.58512733-.5820806" fill="#f5f6f7" transform="matrix(-1 0 0 -1 18.030356 23.536596)"/><path d="m4.13932646 11.2682978c0 .3214742.26197043.5820806.58512734.5820806.3231569 0 .58512733-.2606064.58512733-.5820806" fill="#f5f6f7" transform="matrix(-1 0 0 -1 9.448908 23.536596)"/><path d="m3.7617821 9.75812037c0 .52890043.4310028.95765903.9626717.95765903.53166889 0 .96267169-.4287586.96267169-.95765903" transform="matrix(-1 0 0 -1 9.448908 20.51624)"/><path d="m7.91477009 9.75812037c0 .52890043.43100279.95765903.96267169.95765903s.96267169-.4287586.96267169-.95765903" transform="matrix(-1 0 0 -1 17.754884 20.51624)"/></g><path d="m9.9492492 7.10884087s-1.24766613 1.03714091-3.78650449 1.58981571c-2.53883836.55267481-4.27742277.82643134-4.27742277.82643134l-.11927305 1.17126378h-1.08458229s-.48845777-3.37993517.35014052-4.86061696c.8385983-1.4806818 2.18304704-2.71452185 4.44370452-2.71452185s3.96993058-.11964174 5.23824366.85998265c1.2683131.97962438 2.1045149 2.75581575 2.1045149 4.03574276v2.5646471h-.9213411s-.8835768-.95713301-1.1831738-1.49137402c-.349563-.62334048-.7643061-1.98137051-.7643061-1.98137051z" fill="#ffa47b"/></g><path d="m1.95934996 9.51316431c.35639684-.0580692 1.9703523-.32840104 4.20339475-.81450773 2.53883836-.5526748 3.78650449-1.58981571 3.78650449-1.58981571s.4147431 1.35803003.7643061 1.98137051c.1462288.26075496.4315772.62225413.6854053.92403522 0-.72387659 0-1.46528087 0-1.8764608 0-.98405606-.6429034-2.34965885-1.61803028-3.10283095-.97512685-.7531721-2.28928035-.66118702-4.02735891-.66118702s-2.77174137.94862267-3.4164873 2.08702657c-.3065595.5412807-.3824569 1.83944643-.37773415 3.05236991z" fill="#ff8f5c"/><path d="m9.9492492 7.10884087s-1.24766613 1.03714091-3.78650449 1.58981571c-2.53883836.55267481-4.27742277.82643134-4.27742277.82643134l-.09079131 1.17126378h-1.11306403s-.48845777-3.37993517.35014052-4.86061696c.8385983-1.4806818 2.18304704-2.71452185 4.44370452-2.71452185s3.96993058-.11964174 5.23824366.85998265c1.2683131.97962438 2.1045149 2.75581575 2.1045149 4.03574276v2.5646471h-.9213411s-.8835768-.95713301-1.1831738-1.49137402c-.349563-.62334048-.7643061-1.98137051-.7643061-1.98137051z" stroke="#404f54"/><path d="m9.9492492 8.24147396s-1.24766613 1.03714091-3.78650449 1.58981571c-2.53883836.55267483-4.27742277.82643133-4.27742277.82643133l-.09079131 1.1712638h-1.11306403s-.48845777-3.37993518.35014052-4.86061698c.8385983-1.48068179 2.18304704-2.71452184 4.44370452-2.71452184s3.96993058-.11964174 5.23824366.85998264c1.2683131.97962439 2.1045149 2.75581576 2.1045149 4.03574276v2.56464702h-.9213411s-.8835768-.9571329-1.1831738-1.4913739c-.349563-.62334052-.7643061-1.98137054-.7643061-1.98137054z"/></g><g transform="translate(74.131884 49.253947)"><path d="m.48073854 32.0847442v-12.5626552c0-3.7318542 3.01998383-6.7571198 6.75657014-6.7571198h80.04334872c3.7315507 0 6.7565702 3.0193973 6.7565702 6.7567835v111.1326033c0 3.731668-3.0199839 6.756783-6.7565702 6.756783h-80.04334872c-3.73155065 0-6.75657014-3.023504-6.75657014-6.754367v-65.7481036m0-8.3125142v-17.584097" fill="#fff" stroke="#404f54" stroke-linecap="round" stroke-width="1.5"/><rect fill="#fff" height="20.509891" rx="9" stroke="#404f54" stroke-linecap="round" stroke-width="1.5" width="61.574664" x="16.471651" y=".257382"/><rect fill="#e0eaef" height="12.505833" rx="6.252917" width="45.008613" x="24.754676" y="5.010291"/><path d="m44.8482469 129.609021h-31.229311c-3.73269705 0-6.75864589-3.018946-6.75864589-6.762107v-110.0200951h80.81821229v110.0200951c0 3.734609-3.0291471 6.762107-6.7583915 6.762107h-8.5737972m0 0h-27.4980667" fill="#fff" stroke="#404f54" stroke-linecap="round" stroke-width="1.5"/><path d="m17.1936968 68.2434733h-10.33340679v-55.5873486h80.81821229v55.5873486h-30.4373544m14.4784893 0h-54.971967" fill="#f4fffe" stroke="#404f54" stroke-linecap="round" stroke-width="1.5"/><rect fill="#e0eaef" height="4.55334" rx="2.27667" width="33.823466" x="17.201373" y="75.989116"/><rect height="9.977393" rx="4.988697" stroke="#e0eaef" stroke-width="1.5" width="59.135715" x="17.592315" y="85.933214"/><rect fill="#e0eaef" height="4.55334" rx="2.27667" width="33.823466" x="17.201373" y="102.205374"/><rect height="9.977393" rx="4.988697" stroke="#e0eaef" stroke-width="1.5" width="59.135715" x="17.592315" y="112.149472"/><rect fill="#ffaf8b" height="4.55334" rx="2.27667" width="31.536983" x="32.172539" y="56.952561"/></g><ellipse cx="120.924969" cy="83.925273" fill="#fff" rx="15.54187" ry="15.54187"/><ellipse cx="123.09928" cy="86.099585" fill="#fff" rx="15.54187" ry="15.54187"/><ellipse cx="120.924969" cy="83.925273" rx="15.54187" ry="15.54187" stroke="#404f54" stroke-linecap="round" stroke-width="1.5"/><g transform="translate(112.916287 72.065322)"><g stroke="#404f54"><ellipse cx="1.688631" cy="13.923045" fill="#f5f6f7" rx="1.50116" ry="1.493344" stroke-linecap="round"/><ellipse cx="14.763381" cy="13.923045" fill="#f5f6f7" rx="1.50116" ry="1.493344" stroke-linecap="round"/><rect fill="#ff8f5c" height="5.156247" rx="2.578124" stroke-linecap="round" width="12.069" x="2.184042" y="16.58586"/><ellipse cx="8.362082" cy="3.390033" fill="#ffa47b" rx="3.023881" ry="3.023881"/></g><path d="m11.2381957 2.4536731c.0959197.29482584.147768.60953817.147768.9363603 0 1.67004353-1.3538378 3.0238813-3.02388132 3.0238813-.75350798 0-1.44264502-.27560479-1.97210438-.73150764-.09591978-.29482584-.14776801-.60953817-.14776801-.9363603 0-1.67004353 1.35383777-3.0238813 3.0238813-3.0238813.75350801 0 1.44264501.27560479 1.97210441.73150764z" fill="#ff8f5c"/><ellipse cx="8.362082" cy="3.390033" rx="3.023881" ry="3.023881" stroke="#404f54"/><rect fill="#f5f6f7" height="5.156247" rx="1.445335" stroke="#404f54" stroke-linecap="round" width="2.89067" x="6.773207" y="18.350818"/><rect fill="#fff" height="16.041708" rx="6.0345" stroke="#404f54" stroke-linecap="round" width="12.069" x="2.184042" y="4.796391"/><path d="m7.67734289 14.5332469v1.7115532h.5" stroke="#404f54" stroke-linecap="round" stroke-linejoin="round" stroke-width=".75"/><path d="m7.10615671 17.5102634c0 .5534258.44864029 1.0020661 1.00206613 1.0020661s1.00206612-.4486403 1.00206612-1.0020661" fill="#f5f6f7" stroke="#ff8f5c" stroke-linecap="round"/><path d="m6.33923722 5.09597865c-2.40945507.79166712-4.15519553 3.06334535-4.15519553 5.74223585v1.9556311c.47609988-.1048964 2.50753592-.5520248 5.15848855-1.1291055 3.03955336-.6616745 4.23919706-1.67255993 4.23919706-1.67255993s.5667238 1.47363203.9852284 2.21990903c.3586841.6396052 1.2461022 1.5843882 1.2461022 1.5843882v-1.8607664s.191938.068951.4399834.0901717v-1.1876682c0-2.57326008-1.6049228-4.76895896-3.8667071-5.64049365-1.0980977-.1467741-2.36819454-.10492244-3.83117012-.10492244-.0727653 0-.14473774.00106773-.21592686.00318024z" fill="#dae2e6"/><g stroke="#404f54"><g stroke-linecap="round" stroke-width=".75"><path d="m10.0926428 13.6878772c0 .3848761.3136368.6968797.7005273.6968797.3868906 0 .7005274-.3120036.7005274-.6968797" fill="#f5f6f7" transform="matrix(-1 0 0 -1 21.58634 28.375754)"/><path d="m4.95569311 13.6878772c0 .3848761.31363679.6968797.70052737.6968797.38689059 0 .70052738-.3120036.70052738-.6968797" fill="#f5f6f7" transform="matrix(-1 0 0 -1 11.31244 28.375754)"/><path d="m4.50368866 11.7333289c0 .6332113.51600607 1.1465305 1.15253182 1.1465305s1.15253183-.5133192 1.15253183-1.1465305" transform="matrix(-1 0 0 -1 11.31244 24.613188)"/><path d="m9.47573764 11.7333289c0 .6332113.51600608 1.1465305 1.15253186 1.1465305.6365257 0 1.1525318-.5133192 1.1525318-1.1465305" transform="matrix(-1 0 0 -1 21.256538 24.613188)"/></g><path d="m11.911461 8.51086138s-1.4937335 1.24168801-4.53328685 1.90336252c-3.03955339.6616745-5.12102507.9894218-5.12102507.9894218l-.14279632 1.4022629h-1.29848589s-.58479243-4.04653306.41919597-5.81923802c1.00398841-1.77270496 2.61359216-3.24988553 5.32010124-3.24988553 2.70650909 0 4.75288862-.14323774 6.27134112 1.02959022 1.5184524 1.17282796 2.5195717 3.29932352 2.5195717 4.83168041v3.07045212h-1.1030499s-1.0578378-1.1459007-1.4165218-1.7855059c-.4185046-.746277-.9150442-2.37214052-.9150442-2.37214052z" fill="#ffa47b"/></g><path d="m2.34577707 11.3893705c.42668617-.0695217 2.35894931-.393169 5.03239708-.9751466 3.03955335-.66167451 4.53328685-1.90336252 4.53328685-1.90336252s.4965396 1.62586352.9150442 2.37214052c.1750682.3121816.5166937.7449764.8205823 1.1062754 0-.866641 0-1.7542666 0-2.24654032 0-1.17813366-.7696982-2.81306349-1.9371416-3.71477777s-2.74077701-.79158772-4.82164307-.79158772-3.31839001 1.13571203-4.09029409 2.49863433c-.36701981.64803322-.45788585 2.20222592-.45223167 3.65436468z" fill="#ff8f5c"/><path d="m11.911461 8.51086138s-1.4937335 1.24168801-4.53328685 1.90336252c-3.03955339.6616745-5.12102507.9894218-5.12102507.9894218l-.10869736 1.4022629h-1.33258485s-.58479243-4.04653306.41919597-5.81923802c1.00398841-1.77270496 2.61359216-3.24988553 5.32010124-3.24988553 2.70650909 0 4.75288862-.14323774 6.27134112 1.02959022 1.5184524 1.17282796 2.5195717 3.29932352 2.5195717 4.83168041v3.07045212h-1.1030499s-1.0578378-1.1459007-1.4165218-1.7855059c-.4185046-.746277-.9150442-2.37214052-.9150442-2.37214052z" stroke="#404f54"/><path d="m11.911461 9.86687474s-1.4937335 1.24168806-4.53328685 1.90336246c-3.03955339.6616745-5.12102507.9894219-5.12102507.9894219l-.10869736 1.4022629h-1.33258485s-.58479243-4.0465331.41919597-5.81923806c1.00398841-1.77270496 2.61359216-3.24988553 5.32010124-3.24988553 2.70650909 0 4.75288862-.14323774 6.27134112 1.02959022 1.5184524 1.17282796 2.5195717 3.29932352 2.5195717 4.83168037v3.0704522h-1.1030499s-1.0578378-1.1459008-1.4165218-1.7855059c-.4185046-.746277-.9150442-2.37214056-.9150442-2.37214056z"/></g><g transform="translate(143.677332 149.672553)"><ellipse cx="28.547723" cy="27.757334" fill="#fff" rx="27.632248" ry="27.632248"/><ellipse cx="32.413481" cy="31.623092" fill="#71d5ca" rx="27.632248" ry="27.632248"/><ellipse cx="34.358027" cy="34.567638" fill="#1cc1b6" rx="23.687702" ry="23.687702"/><use mask="url(#b)" stroke="#fff" stroke-width="4" xlink:href="#a"/><rect fill="#fff" height="21.261673" rx="6" width="26.093872" x="15.463035" y="21.261673"/><path d="m30.8587391 33.0040768c.9551066-.6254115 1.586039-1.7049437 1.586039-2.9318381 0-1.9340615-1.5678666-3.5019282-3.5019282-3.5019282-1.9340615 0-3.5019282 1.5678667-3.5019282 3.5019282 0 1.2603302.6657899 2.3651567 1.6648418 2.981952l-.8895153 3.2761198c-.1568063.4825406.4015428.8843989 1.2554222.8843989h3.0347685c.866986 0 1.4141721-.3959589 1.2554222-.8843989z" fill="#1cc1b6"/><ellipse cx="28.547723" cy="27.757334" rx="27.632248" ry="27.632248" stroke="#404f54" stroke-linecap="round" stroke-width="1.5"/></g></g></svg>