<svg height="28" viewBox="0 0 40 28" width="40" xmlns="http://www.w3.org/2000/svg"><g fill="none" fill-rule="evenodd" stroke-linecap="round" stroke-linejoin="round" stroke-width="2" transform="translate(1 -1)"><path d="m29.0246774 23.2271717v1.5343406c0 1.6068523-1.3035162 2.9094635-2.8891093 2.9094635h-23.24645877c-1.59561102 0-2.88910933-1.2965285-2.88910933-2.8906898v-15.98712846c0-1.59648389 1.29969936-2.8906898 2.90617445-2.8906898h13.37762875" stroke="#808081"/><g stroke="#919191"><ellipse cx="7.256169" cy="20.414806" opacity=".4" rx="1.451234" ry="1.451234"/><ellipse cx="10.256169" cy="20.414806" opacity=".4" rx="1.451234" ry="1.451234"/><path d="m.50453978 11.7074032h11.62272082" opacity=".4"/></g><g stroke="#808081"><path d="m25.2385476 3.85985707 10.5857864 1.41421356 1.4142136 10.58578647s-4.4260357 7.1204565-15.5355339 3.5355339c-2.976067-10.5006426 3.5355339-15.53553393 3.5355339-15.53553393z" fill="#b9b9b9" fill-opacity=".4" transform="matrix(.70710678 -.70710678 .70710678 .70710678 -.060961 24.117018)"/><path d="m29.0246774 10.2561694v4.6756824"/></g></g></svg>