<svg height="31" viewBox="0 0 34 31" width="34" xmlns="http://www.w3.org/2000/svg"><g style="stroke:#808081;stroke-width:2;fill:none;fill-rule:evenodd;stroke-linecap:round;stroke-linejoin:round" transform="translate(1.251934 1)"><path d="m18.2696917 24h-15.2752242c-1.65379873 0-2.9944675-1.3417706-2.9944675-2.9910904v-18.01781918c0-1.65193363 1.3419105-2.99109042 2.99951927-2.99109042h19.45049733c1.6565888 0 2.9995193 1.35130767 2.9995193 2.99977673v7.84958497"/><path d="m10.5834894 6.19845806-5.0811576 5.88894274h6.8853329l-5.2090959 5.7141411" transform="matrix(.98768834 -.15643447 .15643447 .98768834 -1.767086 1.547046)"/><g fill="#ddddde"><path d="m19.9077607 22.1383895h-4.8193008l7.6812475-11.4837093 7.6812475 11.4837093h-4.949335v6.5890066h-5.5938592z" transform="matrix(.70710678 -.70710678 .70710678 .70710678 -7.254574 21.867986)"/><path d="m24.9573802 6.00162929h-11.6378489" opacity=".4"/></g></g></svg>