<svg height="194" viewBox="0 0 225 194" width="225" xmlns="http://www.w3.org/2000/svg"><g fill="none" fill-rule="evenodd" transform="translate(0 1)"><g fill="#ddecea"><ellipse cx="106.697575" cy="105.699889" opacity=".618999" rx="81.79201" ry="81.79201"/><ellipse cx="129.38441" cy="90.763956" opacity=".335938" rx="81.79201" ry="81.79201"/></g><g stroke="#d3dfe5" stroke-linecap="round" stroke-width="2" transform="translate(.631898 .414984)"><g fill="#dae2e6"><path d="m68.4194798 17.7502432-7.691865-5.691865"/><path d="m138.41948 187.750243-7.691865-5.691865"/><path d="m208.916264 171.627673-3.691865-3.691865"/><path d="m18.1884103 53.2210387 4.5215927-2.6105427"/><path d="m28.0105747 102.331861 4.5215927-2.6105427"/></g><g stroke-linejoin="round"><path d="m217.28794 41.9809711c0 1.4709452 1.192436 2.6633818 2.663381 2.6633818 1.470946 0 2.663382-1.1924366 2.663382-2.6633818s-1.192436-2.6633818-2.663382-2.6633818"/><path d="m138.710624 2.69231326c0 1.47094517 1.192437 2.66338184 2.663382 2.66338184s2.663382-1.19243667 2.663382-2.66338184-1.192437-2.66338184-2.663382-2.66338184"/><ellipse cx="205.473828" cy="122.784324" rx="4.469495" ry="4.469495"/><ellipse cx="74.85918" cy="186.527422" rx="4.469495" ry="4.469495"/><ellipse cx="5.234398" cy="130.605738" rx="4.469495" ry="4.469495"/><circle cx="123.294955" cy="83.622258" r="4.469495"/></g></g><g transform="translate(59.805003 39.131034)"><rect fill="#e1ebf0" height="95.776384" rx="3" stroke="#404f54" stroke-linecap="round" stroke-width="2" transform="matrix(.98162718 .190809 -.190809 .98162718 14.044492 -8.359124)" width="82.857318" x="9" y="20.861057"/><rect fill="#fff" height="95.776384" rx="3" stroke="#404f54" stroke-linecap="round" stroke-width="2" width="82.857318" x="9" y="19.861057"/><ellipse cx="55.030144" cy="27.552824" fill="#e0eaef" rx="22.293409" ry="22.293409"/><ellipse cx="50.715929" cy="23.430944" fill="#fff" rx="22.293409" ry="22.293409"/><ellipse cx="50.715929" cy="23.430944" rx="22.293409" ry="22.293409" stroke="#404f54" stroke-linecap="round" stroke-width="2"/><g transform="translate(39.228199 6.418915)"><g stroke="#404f54"><ellipse cx="2.422189" cy="19.971351" fill="#f5f6f7" rx="2.153279" ry="2.142067" stroke-linecap="round" stroke-width="1.3"/><ellipse cx="21.176737" cy="19.971351" fill="#f5f6f7" rx="2.153279" ry="2.142067" stroke-linecap="round" stroke-width="1.3"/><rect fill="#ff8f5c" height="7.396171" rx="3.698086" stroke-linecap="round" stroke-width="1.3" width="17.31189" x="3.132811" y="23.790919"/><ellipse cx="11.994652" cy="4.862697" fill="#ffa47b" rx="4.337485" ry="4.337485" stroke-width="1.3"/></g><path d="m16.1201769 3.5195725c.1375883.42290105.2119599.87432746.2119599 1.3431243 0 2.39552664-1.9419581 4.33748468-4.3374847 4.33748468-1.0808392 0-2.06934401-.39533019-2.82880565-1.04928166-.13758827-.42290105-.21195988-.87432746-.21195988-1.3431243 0-2.39552664 1.94195803-4.33748468 4.33748473-4.33748468 1.0808391 0 2.069344.39533019 2.8288056 1.04928166z" fill="#ff8f5c"/><ellipse cx="11.994652" cy="4.862697" rx="4.337485" ry="4.337485" stroke="#404f54" stroke-width="1.3"/><rect fill="#f5f6f7" height="7.396171" rx="2.073202" stroke="#404f54" stroke-linecap="round" stroke-width="1.3" width="4.146405" x="9.715553" y="26.322591"/><rect fill="#fff" height="23.010381" rx="8.655945" stroke="#404f54" stroke-linecap="round" stroke-width="1.3" width="17.31189" x="3.132811" y="6.87999"/><path d="m11.0124551 20.8466303v2.4550686h.7172049" stroke="#404f54" stroke-linecap="round" stroke-linejoin="round" stroke-width=".975"/><path d="m10.1931401 25.1168917c0 .7938394.643534 1.4373734 1.4373734 1.4373734s1.4373734-.643534 1.4373734-1.4373734" fill="#f5f6f7" stroke="#ff8f5c" stroke-linecap="round" stroke-width="1.3"/><path d="m9.09033977 7.3098024c-3.45473762 1.13424306-5.95752918 4.385898-5.95752918 8.2202515v2.8215624c.68292229-.1504645 3.59683386-.7918297 7.39938601-1.6195999 4.3599649-.9491123 6.0807454-2.3991362 6.0807454-2.3991362s.8129142 2.1137921 1.4132212 3.1842591c.5145.9174558 1.787421 2.2726618 1.787421 2.2726618v-2.6691014s.2753178.0989039.6311165.1293432v-1.719989c0-3.6781831-2.3017453-6.82460844-5.545657-8.0742877-1.5753017-.21065912-3.3973977-.15060675-5.49625273-.15060675-.10530332 0-.20944903.00155893-.3124512.00464295z" fill="#dae2e6"/><g stroke="#404f54"><g stroke-linecap="round" stroke-width=".975"><path d="m14.4769847 20.0684336c0 .5520699.4498837.999611 1.0048433.999611s1.0048432-.4475411 1.0048432-.999611" fill="#f5f6f7" transform="matrix(-1 0 0 -1 30.963656 41.136868)"/><path d="m7.10849428 20.0684336c0 .5520699.44988366.999611 1.00484326.999611.55495961 0 1.00484326-.4475411 1.00484326-.999611" fill="#f5f6f7" transform="matrix(-1 0 0 -1 16.226676 41.136868)"/><path d="m6.46013471 16.8304008c0 .9082845.74016412 1.6445945 1.65320283 1.6445945.91303872 0 1.65320284-.73631 1.65320284-1.6445945" transform="matrix(-1 0 0 -1 16.226676 35.305396)"/><path d="m13.59209 16.8304008c0 .9082845.7401641 1.6445945 1.6532029 1.6445945.9130387 0 1.6532028-.73631 1.6532028-1.6445945" transform="matrix(-1 0 0 -1 30.490586 35.305396)"/></g><path d="m17.0859152 12.2080621s-2.1426257 1.7810894-6.5025906 2.7302017c-4.35996488.9491123-7.34564805 1.4192363-7.34564805 1.4192363l-.20482844 2.0114195h-1.86256076s-.83883194-5.8043863.60129878-8.3471715c1.44013071-2.54278523 3.74896194-4.66166737 7.63120484-4.66166737 3.88224293 0 6.81758953-.2054616 8.99567253 1.47685421 2.1780829 1.6823158 3.6140981 4.73258166 3.6140981 6.93060926v4.4042863h-1.5822255s-1.5173727-1.6436911-2.0318726-2.5611469c-.6003071-1.070467-1.3125483-3.4026215-1.3125483-3.4026215z" fill="#ffa47b" stroke-width="1.3"/></g><path d="m3.36480539 16.3370236c.61204278-.0997227 3.38369977-.5639654 7.21851921-1.3987598 4.3599649-.9491123 6.5025906-2.7302017 6.5025906-2.7302017s.7122412 2.3321545 1.3125483 3.4026215c.2511196.4477963.7411505 1.0686013 1.1770512 1.5868521 0-1.2431183 0-2.5163371 0-3.2224592 0-1.6899264-1.1040625-4.0350856-2.7786547-5.32851332-1.6745921-1.29342772-3.9313971-1.1354611-6.91621159-1.1354611-2.98481446 0-4.75993082 1.62907634-5.86715752 3.58406532-.52645678.9295451-.65679591 3.1588942-.6486855 5.2418562z" fill="#ff8f5c"/><path d="m17.0859152 12.2080621s-2.1426257 1.7810894-6.5025906 2.7302017c-4.35996488.9491123-7.34564805 1.4192363-7.34564805 1.4192363l-.15591655 2.0114195h-1.91147265s-.83883194-5.8043863.60129878-8.3471715c1.44013071-2.54278523 3.74896194-4.66166737 7.63120484-4.66166737 3.88224293 0 6.81758953-.2054616 8.99567253 1.47685421 2.1780829 1.6823158 3.6140981 4.73258166 3.6140981 6.93060926v4.4042863h-1.5822255s-1.5173727-1.6436911-2.0318726-2.5611469c-.6003071-1.070467-1.3125483-3.4026215-1.3125483-3.4026215z" stroke="#404f54" stroke-width="1.3"/><path d="m17.0859152 14.1531409s-2.1426257 1.7810893-6.5025906 2.7302016c-4.35996488.9491123-7.34564805 1.4192363-7.34564805 1.4192363l-.15591655 2.0114195h-1.91147265s-.83883194-5.8043863.60129878-8.3471715c1.44013071-2.54278521 3.74896194-4.66166735 7.63120484-4.66166735 3.88224293 0 6.81758953-.2054616 8.99567253 1.47685421 2.1780829 1.68231584 3.6140981 4.73258164 3.6140981 6.93060924v4.4042863h-1.5822255s-1.5173727-1.6436911-2.0318726-2.5611469c-.6003071-1.070467-1.3125483-3.4026214-1.3125483-3.4026214z"/></g><path d="m36.584802 55.169604h29.2748605" fill="#f5f6f7" stroke="#1ea69a" stroke-linecap="round" stroke-linejoin="round" stroke-width="2"/><path d="m31.0678416 61.7899564h40.3087813" fill="#f5f6f7" stroke="#c3d2da" stroke-linecap="round" stroke-linejoin="round" stroke-width="2"/><path d="m17.827137 73.927269h63.996741v33.101762h-63.996741z" fill="#e2fffd"/><path d="m17.8271366 104.290562s4.803793-.141223 6.9490712-1.159051c2.8007379-1.328812 8.3181614-14.6397982 11.7388424-16.3405516 5.8128147-2.8901156 13.9784596 8.5002697 19.9332651 6.6964526 5.3760844-1.6285122 13.53528-12.6284839 17.5366854-15.88521 6.8261754-5.5557939 8.3375793.1060739 8.3375793.1060739l-.4987028 29.3207561h-63.9967406z" fill="#9be8e2"/><path d="m20.0822116 103.696675c10.1301054 0 11.4113675-16.9508886 18.5294902-16.9508886 7.1181226 0 12.4058709 9.6253438 20.1707258 6.0752719 7.764855-3.550072 11.4784812-16.919192 21.5841817-16.919192" stroke="#1ea69a" stroke-linecap="round" stroke-linejoin="round" stroke-width="2"/></g><g stroke-linecap="round" stroke-width="1.5" transform="matrix(.70710678 -.70710678 .70710678 .70710678 47.5918 116.532988)"><path d="m2.63291183 31.4313068c0-1.3756243 1.12472125-2.4907881 2.49078814-2.4907881h4.4985369c1.37562433 0 2.66891193 1.1043779 2.88861763 2.4665659l1.0274194 6.3700596c.2197151 1.3622468-.7065485 2.2884422-2.0687365 2.0687365l-6.37005961-1.0274193c-1.36224677-.2197152-2.46656596-1.5225508-2.46656596-2.8886177z" fill="#fff" stroke="#404f54" transform="matrix(.70710678 .70710678 -.70710678 .70710678 26.704004 4.349479)"/><rect fill="#ff8f5c" height="33.813531" rx="6.015852" stroke="#404f54" width="12.031703" x="2.34823" y=".372493"/><g stroke="#fff"><path d="m4.92427712 6.75151532c0-1.89788007 1.53880541-3.43641586 3.43980489-3.43641586"/><path d="m10.3248999 33.3509199v-26.66593141"/><path d="m5.48009879 33.3509199v-22.7350596"/></g></g><g transform="translate(132.805003 95.012172)"><ellipse cx="18.778957" cy="18.259032" fill="#fff" rx="18.176749" ry="18.176749"/><ellipse cx="20.321889" cy="19.801964" fill="#71d5ca" rx="18.176749" ry="18.176749"/><ellipse cx="21.601029" cy="21.738913" fill="#1cc1b6" rx="15.581991" ry="15.581991"/><ellipse cx="18.778957" cy="18.259032" rx="18.176749" ry="18.176749" stroke="#404f54" stroke-linecap="round" stroke-width="1.5"/><path d="m19.8493549 25.0274709c-3.1682055 0-3.2971691-1.8828684-3.2971691-3.619578v-5.6099162h-1.4787825l.2364333-1.6722279c1.4787825-.2364332 2.011832-1.3713128 2.3987228-2.635156h1.3928067v2.4417106h3.2971691l-.6448179 1.8613745h-2.65665v5.5024465c0 1.3068311.4943604 1.6937218 1.3928067 1.6937218.6190253 0 1.1563736-.2149394 1.5002765-.4083847l.4943605 1.7539048c-.6018302.3911895-1.6077461.6921046-2.6351561.6921046z" fill="#fff"/></g></g></svg>