<svg height="180" viewBox="0 0 542 180" width="542" xmlns="http://www.w3.org/2000/svg"><g fill="none" fill-rule="evenodd" transform="translate(148 21)"><path d="m76.0237574 138.896229c-15.8433406 0-28.7326688-12.851182-28.7326688-28.647785v-26.6696203h7.6827372v26.6696203c0 11.57376 9.4428523 20.989382 21.0499316 20.989382 11.5955552 0 21.028804-9.415622 21.028804-20.989382v-83.8989454h7.6827376v83.8989454c0 15.796603-12.8797251 28.647785-28.7115416 28.647785" fill="#f9c44f"/><path d="m124.924764 67.9775096h-7.682738v-45.4162396c0-3.4424518-2.804199-6.2431295-6.250675-6.2431295-3.451853 0-6.259894 2.8006777-6.259894 6.2431295v4.3503553h-7.6827369v-4.3503553c0-7.6652948 6.2545159-13.90153171 13.9426309-13.90153171 7.683122 0 13.933413 6.23623691 13.933413 13.90153171z" fill="#f9c44f"/><path d="m100.125656 29.4128595h1.536548v-3.0633609h-1.536548zm0 6.1267218h1.536548v-3.0633609h-1.536548zm0 6.1267217h1.536548v-3.0633609h-1.536548zm0 6.1267218h1.536548v-3.0633609h-1.536548zm0 6.1267218h1.536548v-3.0633609h-1.536548zm0 6.1267217h1.536548v-3.0633609h-1.536548zm0 6.1267218h1.536548v-3.0633609h-1.536548zm0 6.1267217h1.536548v-3.0633608h-1.536548zm0 6.1267218h1.536548v-3.0633609h-1.536548zm0 6.1267218h1.536548v-3.0633609h-1.536548zm-49.7614725 3.757595h1.5365474v-3.0633609h-1.5365474zm49.7614725 2.3691267h1.536548v-3.0633608h-1.536548zm-49.7614725 3.7575951h1.5365474v-3.0633609h-1.5365474zm49.7614725 2.3691267h1.536548v-3.0633609h-1.536548zm-49.7614725 3.7575951h1.5365474v-3.0633609h-1.5365474zm49.7614725 2.369127h1.536548v-3.0633612h-1.536548zm-49.7614725 3.757595h1.5365474v-3.063361h-1.5365474zm49.7614725 2.369126h1.536548v-3.06336h-1.536548zm-49.625488 3.83035c-.0902722-.871909-.1359845-1.760666-.1359845-2.642148v-.493967h1.5365474v.493967c0 .829022.0430234 1.665319.1275335 2.485534zm50.661121 2.413163-1.5065845-.301358c.1939891-.96381.3295894-1.952127.4037275-2.938146l1.531938.113727c-.078364 1.048818-.222799 2.100317-.429081 3.125777zm-49.2425036 3.725047c-.3614728-.984488-.6645568-2.00229-.9011851-3.025452l1.4973655-.343862c.2220311.961512.5070606 1.917664.8466376 2.842799zm47.2403826 2.253102-1.3859658-.660921c.4271602-.889906.8024619-1.815424 1.1159176-2.750898l1.4577992.48516c-.333815.995592-.7333171 1.98008-1.187751 2.926659zm-44.35321 3.34787c-.5934914-.868846-1.1374292-1.780961-1.616832-2.711074l1.3667589-.699595c.4505925.874206.9618787 1.731564 1.5200296 2.548333zm40.9451478 1.957105-1.1823733-.978361c.631521-.757799 1.2223235-1.564229 1.7566579-2.394782l1.2933888.826341c-.5681385.883397-1.1962022 1.740755-1.8676734 2.546802zm-36.7761105 2.77349c-.7867123-.698446-1.5373157-1.45165-2.2295303-2.238168l1.1547154-1.010143c.651112.739036 1.3567714 1.447438 2.0970031 2.104529zm32.177224 1.543551-.9084837-1.2353c.797084-.582422 1.5665101-1.220749 2.287535-1.896986l1.0533033 1.11468c-.7663531.719507-1.5849487 1.398424-2.4323546 2.017606zm-26.9779316 2.037518c-.9323001-.48516-1.844241-1.033884-2.7104697-1.63124l.8739114-1.259807c.813986.561361 1.6713795 1.077154 2.5475956 1.533595zm21.4632628 1.030821-.5769735-1.419485c.9142457-.369518 1.816199-.800686 2.680507-1.281634l.7486827 1.337158c-.9192395.512347-1.8788134.970702-2.8522162 1.363961zm-15.5406407 1.173267c-1.0248771-.242388-2.0447605-.551022-3.0308398-.918242l.5370233-1.434802c.9269223.344628 1.8853437.634882 2.8483748.862719zm9.4351695.449931-.2085863-1.517512c.9810855-.134022 1.9617869-.330843 2.9159829-.584336l.3960451 1.479986c-1.0152737.269959-2.0593577.479033-3.1034417.621862zm-3.5083219.237411c-.9372939 0-1.8815023-.050546-2.8065039-.151637l.1663313-1.522873c.9795489.106835 1.9825303.153934 2.9728351.140915l.0203593 1.53168c-.1175459.001532-.2350918.001915-.3530218.001915z" fill="#282d33"/><path d="m121.851669 67.9775096h-1.536548v-45.4162396c0-5.1315124-4.182866-9.3064904-9.32377-9.3064904-5.146281 0-9.332989 4.174978-9.332989 9.3064904v4.3503553h-1.536547v-4.3503553c0-5.9762342 4.875849-10.8381708 10.869536-10.8381708 5.98831 0 10.860318 4.8619366 10.860318 10.8381708z" fill="#282d33"/><path d="m227.329888 95.2651625v-65.3372754c0-1.6863802-1.377899-3.0591488-3.071558-3.0591488h-105.914599c-1.692123 0-3.068869 1.3727686-3.068869 3.0591488v65.3372754z" fill="#fff"/><path d="m116.043135 94.4993223h110.518479v-64.5714352c0-1.2644023-1.033328-2.2933086-2.303284-2.2933086h-105.914599c-1.268804 0-2.300596 1.0289063-2.300596 2.2933086zm112.055027 1.5316805h-113.591574v-66.1031157c0-2.109124 1.721317-3.824989 3.837143-3.824989h105.914599c2.117362 0 3.839832 1.715865 3.839832 3.824989z" fill="#282d33"/><path d="m121.18596 89.166011h100.116821v-56.2681956h-100.116821z" fill="#fff"/><path d="m121.954233 88.4001708h98.580274v-54.7365152h-98.580274zm-1.536547 1.5316804h101.653368v-57.799876h-101.653368z" fill="#282d33"/><path d="m115.210711 95.1993003v9.4221327c0 1.806234 1.858454 3.818479 3.668891 3.818479h105.659148c1.814278 0 2.896392-1.85678 2.896392-3.66378v-9.5768317z" fill="#fff"/><path d="m115.978984 95.9651405v8.6562925c0 1.426377 1.544999 3.052639 2.900618 3.052639h105.659148c1.332186 0 2.128118-1.473094 2.128118-2.89794v-8.8109915zm108.559766 13.2406115h-105.659148c-2.198031 0-4.437165-2.313603-4.437165-4.584319v-10.1879729h113.760978v10.3426719c0 2.177667-1.3706 4.42962-3.664665 4.42962z" fill="#282d33"/><path d="m158.857109 108.514198c-.192453 2.342323.225104 7.551951-.28042 10.098752-.464422 2.329303-.786328 2.408185-2.027474 3.094378-.700666.383303-1.881503.916328-2.871808 1.343666z" fill="#fff"/><path d="m153.982412 123.753653-.610009-1.4057c.721025-.310931 2.044376-.894501 2.807272-1.312267l.161337-.088838c.982238-.539151 1.108619-.60846 1.482-2.483236.29156-1.469648.257756-3.98237.228178-6.199094-.019207-1.47003-.03803-2.859265.040334-3.812736l1.53117.124832c-.072218.881099-.05378 2.234722-.034957 3.667226.030731 2.29216.065688 4.88989-.257756 6.517683-.48939 2.456816-.929611 2.803359-2.2472 3.527078l-.160954.088454c-.8209.448782-2.193805 1.055328-2.939415 1.376598" fill="#282d33"/><path d="m188.851667 123.06746c-.994914-.432317-2.196879-.974532-2.904459-1.360132-1.238457-.686193-1.482-.765075-1.943732-3.094378-.505908-2.546801-.090272-7.627768-.282725-9.970473z" fill="#fff"/><path d="m188.544742 123.769736c-.933837-.406279-2.206866-.97683-2.965921-1.390383l-.099107-.054758c-1.43091-.791113-1.752817-1.155653-2.229915-3.563455-.323443-1.62741-.289255-4.180338-.259292-6.432674.018823-1.410295.036877-2.742091-.035725-3.623573l1.531554-.124832c.078364.953854.059925 2.321261.040718 3.768699-.029194 2.177284-.061846 4.644821.230098 6.115617.38068 1.919579.441758 1.953659 1.467787 2.520381l.09565.053225c.704507.383686 1.932593.933943 2.838004 1.327202z" fill="#282d33"/><path d="m150.60124 123.066311h41.459122z" fill="#fff"/><path d="m150.60124 123.832152h41.459122v-1.531681h-41.459122z" fill="#282d33"/><path d="m83.7180187 109.354708c0 4.851215-3.9447014 8.783421-8.810563 8.783421-4.8673982 0-8.8117154-3.932206-8.8117154-8.783421 0-4.851981 3.9443172-8.783804 8.8117154-8.783804 4.8658616 0 8.810563 3.931823 8.810563 8.783804" fill="#f9c44f"/><path d="m74.7772333 110.641702-4.4671275-4.506586 1.0932535-1.076772 3.373874 3.40416 5.184311-5.231454 1.0932535 1.076005z" fill="#282d33"/><path d="m84.2984495 125.902218h-5.7555226l-.0096034-.756268c-.0007683-.067011-.0065303-1.665702 1.1823732-3.403776.5055241-.740185 1.2845537-1.379279 1.9717745-1.942937.5258834-.431551 1.4063251-1.153355 1.4063251-1.450884v-.324717c0-.925518-.7544448-1.678338-1.6817512-1.678338-.9284588 0-1.684056.75282-1.684056 1.678338h-1.5365474c0-1.769856 1.4447387-3.210019 3.2206034-3.210019 1.7747123 0 3.2182986 1.440163 3.2182986 3.210019v.324717c0 1.020482-.9553484 1.804319-1.9667807 2.633724-.6372831.522686-1.2964619 1.063369-1.6782939 1.622816-.4548181.665132-.6837637 1.298865-.7990047 1.765644h4.1121851z" fill="#282d33"/><path d="m88.4329145 125.679741h1.5365474v-10.426532h-1.5365474z" fill="#282d33"/><path d="m91.3077947 122.698708h-7.1891213l4.3445879-7.502171 1.3310342.76584-3.0143219 5.204651h4.5278211z" fill="#282d33"/><path d="m75.0987558 121.730686c-.0434074.000766-.0860466.004595-.1298382.004595-6.8495443 0-12.4214495-5.553873-12.4214495-12.380573 0-6.827466 5.5719052-12.3813389 12.4206812-12.3813389 6.0889533 0 11.1622488 4.3905619 12.2143997 10.1623169h-1.9575614l2.0309315 2.405887 2.032084 2.405504 4.0637838-4.811391h-2.5433701c-1.0874915-7.7464739-7.7741617-13.7280689-15.8402675-13.7280689-8.8209347 0-15.9973795 7.1533309-15.9973795 15.9470909 0 8.792994 7.1764448 15.947091 15.9981478 15.946708.0430233 0 .0864308-.002298.1298382-.002298z" fill="#fff"/><path d="m74.9681493 94.1734573c-8.3972317 0-15.2291058 6.8102337-15.2291058 15.1812507 0 4.048231 1.5861011 7.858669 4.4659752 10.729421 2.7285241 2.719882 6.3033017 4.281813 10.1254634 4.438045v-2.035987c-6.9774619-.33314-12.5512877-6.095705-12.5512877-13.131479 0-7.249444 5.91686-13.1471791 13.1889549-13.1471791 6.3755194 0 11.8302628 4.5387521 12.970381 10.7914541l.1647947.902543h-1.2277014l2.4123795 2.856201 2.4123795-2.856201h-1.5599798l-.092577-.659771c-1.0460046-7.4500938-7.5290824-13.0682977-15.0796765-13.0682977zm.0007683 31.8937987c-4.4717372 0-8.6803406-1.739989-11.850238-4.900228-3.1702815-3.159857-4.9161835-7.35513-4.9161835-11.81232 0-9.215738 7.5210156-16.7129311 16.7656532-16.7129311 8.0887698 0 15.0639269 5.8559972 16.4952208 13.7280691h3.5394371l-5.7148041 6.766198-5.7136516-6.766198h2.6505443c-1.3410218-5.052631-5.9360669-8.6306366-11.2567465-8.6306366-6.4250731 0-11.6524075 5.2107766-11.6524075 11.6154986 0 6.404339 5.2277185 11.614733 11.6531758 11.614733l.8981119-.017615v5.113133z" fill="#282d33"/><path d="m76.8227621 109.354325c0 1.054945-.8573935 1.90924-1.9153064 1.90924s-1.9160747-.854295-1.9160747-1.90924.8581618-1.909623 1.9160747-1.909623 1.9153064.854678 1.9153064 1.909623" fill="#fff"/><g fill="#282d33"><path d="m74.9074557 108.210543c-.6330576 0-1.147801.513496-1.147801 1.143782 0 .630669.5147434 1.1434 1.147801 1.1434.6322892 0 1.1470326-.512731 1.1470326-1.1434 0-.630286-.5147434-1.143782-1.1470326-1.143782zm0 3.818862c-1.4804635 0-2.6843484-1.200072-2.6843484-2.67508 0-1.475391 1.2038849-2.675463 2.6843484-2.675463 1.4796952 0 2.6835801 1.200072 2.6835801 2.675463 0 1.475008-1.2038849 2.67508-2.6835801 2.67508z"/><path d="m73.8257263 101.865939h1.5365474v-1.462372h-1.5365474z"/><path d="m65.7915039 110.309711h1.4670187v-1.531681h-1.4670187z"/><path d="m74.1921928 118.317719h1.5365475v-1.462372h-1.5365475z"/><path d="m82.2955599 109.943639h1.4674028v-1.53168h-1.4674028z"/><path d="m56.4231742 10.7788182h8.4659922v-1.53168046h-8.4659922z"/><path d="m51.1159393 10.7788182h2.8214853v-1.53168046h-2.8214853z"/><path d="m51.8135319 14.9909394h8.4659922v-1.5316804h-8.4659922z"/><path d="m46.506297 14.9909394h2.8214853v-1.5316804h-2.8214853z"/><path d="m162.961995 63.1791377h-1.536547v-9.4822506c0-7.8533086-6.410476-14.2430965-14.289507-14.2430965-7.878647 0-14.289123 6.3897879-14.289123 14.2430965v9.4822506h-1.536547v-9.4822506c0-8.6980304 7.099233-15.7747769 15.82567-15.7747769s15.826054 7.0767465 15.826054 15.7747769z"/></g><path d="m164.221964 63.9101322c0 1.797427-1.462409 3.254821-3.265931 3.254821h-.271585c-1.804291 0-3.265932-1.457394-3.265932-3.254821v-5.9685757c0-1.7978099 1.461641-3.2552039 3.265932-3.2552039h.271585c1.803522 0 3.265931 1.457394 3.265931 3.2552039z" fill="#f9c44f"/><path d="m164.905344 88.8095124h-1.536548v-5.8693995c0-2.1665619-2.04284-3.9291432-4.554326-3.9291432h-23.356674c-2.511487 0-4.555095 1.7625813-4.555095 3.9291432v5.8693995h-1.536547v-5.8693995c0-3.0112837 2.73275-5.4608236 6.091642-5.4608236h23.356674c3.358508 0 6.090874 2.4495399 6.090874 5.4608236z" fill="#282d33"/><path d="m159.026897 53.6968871v9.4822506c0 6.5464022-5.323368 11.8532921-11.890956 11.8532921-6.567204 0-11.890957-5.3068899-11.890957-11.8532921v-9.4822506z" fill="#fff"/><path d="m147.135941 75.79827c-6.980535 0-12.65923-5.660708-12.65923-12.6191323v-9.4822506h1.536547v9.4822506c0 6.1137025 4.989554 11.0874518 11.122683 11.0874518s11.122683-4.9737493 11.122683-11.0874518v-9.4822506h1.536547v9.4822506c0 6.9584243-5.678695 12.6191323-12.65923 12.6191323" fill="#282d33"/><path d="m155.464796 41.2010551h-12.574336c-1.924525 0-3.615496.9867851-4.59927 2.4790248h-1.889569c-.167484 0-.331126.0126364-.494385.0306336-2.103917 2.3492149-3.477591 5.3582011-3.766846 8.6739063v10.9966998h3.000109v-9.2210992c0-1.6515344 1.343327-2.9913719 2.999725-2.9913719h20.832894c3.038523 0 5.500456-2.4537521 5.500456-5.4815014v-4.486292z" fill="#09a59a"/><path d="m135.908773 63.3813196h-1.536547v-9.2210992c0-2.0715978 1.690202-3.7572121 3.767998-3.7572121h20.832894c2.609442 0 4.732182-2.1156336 4.732182-4.7156612v-4.486292h1.536548v4.486292c0 3.4451322-2.812266 6.2473416-6.26873 6.2473416h-20.832894c-1.23039 0-2.231451.9982727-2.231451 2.2255317z" fill="#282d33"/><path d="m136.604061 63.9101322c0 1.797427-1.461641 3.254821-3.265548 3.254821h-.271969c-1.804675 0-3.266315-1.457394-3.266315-3.254821v-5.9685757c0-1.7978099 1.46164-3.2552039 3.266315-3.2552039h.271969c1.803907 0 3.265548 1.457394 3.265548 3.2552039z" fill="#f9c44f"/><path d="m132.846818 63.1791377h-1.536547v-9.4822506c0-8.6980304 7.099233-15.7747769 15.82567-15.7747769v1.5316804c-7.878647 0-14.289123 6.3897879-14.289123 14.2430965z" fill="#282d33"/><path d="m149.185311 82.6548375h-4.565851l-2.061662-3.5596254 1.331034-.7658402 1.6176 2.7937851h2.792291l1.6176-2.7937851 1.330651.7658402z" fill="#282d33"/><path d="m149.302089 89.2383829-1.576114-7.2096198 1.501591-.3262479 1.575729 7.2096198z" fill="#282d33"/><path d="m144.500762 89.2383829-1.501207-.3262479 1.575345-7.2096198 1.501207.3262479z" fill="#282d33"/><path d="m159.026897 71.7626749h-9.322617v-1.5316804h9.322617c1.322584 0 2.398551-1.0725592 2.398551-2.3909532h1.536547c0 2.1627328-1.765109 3.9226336-3.935098 3.9226336" fill="#282d33"/><path d="m147.100984 65.0351515h1.536548v-6.4878154h-1.536548z" fill="#282d33"/><path d="m51.1747123 82.0471433c.9864634 0 1.9859875.0371432 2.9524759.0735206.9407511.0352287 1.9133857.0716061 2.8472224.0716061 1.6855925 0 3.8701788-.1033885 5.8204417-.9094353 2.6670622-1.1020441 4.7494681-3.3605069 6.7627293-5.5443003.6476548-.7022754 1.3172053-1.4279091 1.9963593-2.1052947.6795381-.6770028 1.4078616-1.3444325 2.1123686-1.9896529 2.1907325-2.0072672 4.4563717-4.0826942 5.5623017-6.7416915 1.069437-2.5709256.9580373-5.5190275.8404914-8.6405923-.0361088-.963044-.0737542-1.9590193-.0737542-2.9423581s.0376454-1.979697.0737542-2.9435069c.1179301-3.1211818.2289456-6.0692837-.8401073-8.6394435-1.1063141-2.6593802-3.371185-4.7348072-5.5623017-6.7413085-.704507-.6456034-1.4328305-1.3130331-2.1123686-1.9908017-.6791539-.6766198-1.3483203-1.4026364-1.9959751-2.1049118-2.0136454-2.1837934-4.0960513-4.4418733-6.7634976-5.5446832-1.9498787-.8060469-4.1348492-.9094353-5.8204417-.9094353-.9338367 0-1.9064713.0367603-2.8468383.0716061-.9664883.0363774-1.9663966.0739035-2.95286.0739035-.9868476 0-1.9859876-.0375261-2.95286-.0739035-.9403671-.0348458-1.9130016-.0716061-2.8468383-.0716061-1.6855925 0-3.8701789.1033884-5.8200575.9094353-2.6674464 1.1028099-4.749084 3.3605068-6.7623453 5.5439173-.6472706.7022755-1.3172053 1.4290579-1.9967434 2.1060606-.6795381.6773857-1.4074774 1.3448154-2.1119844 1.9904188-2.1903484 2.0068842-4.4556035 4.0826942-5.5615335 6.7416914-1.0686687 2.5701598-.9576532 5.5178788-.8397232 8.6390606.0364931.963427.0737543 1.9601681.0737543 2.9435069 0 .9837218-.0372612 1.9800799-.0737543 2.9435069-.11793 3.1207989-.2289455 6.0689008.8401074 8.6390606 1.10593 2.6589972 3.371185 4.7340413 5.5615334 6.7413085.704507.6456033 1.4328305 1.3130331 2.1123686 1.9904188.6791539.6773856 1.3490886 1.4034022 1.9963592 2.1056777 2.0132613 2.1837933 4.0948989 4.4414903 6.7619612 5.5439173 1.9502628.8060468 4.1356174.9094353 5.821594.9094353.9338367 0 1.9060871-.0363774 2.84607-.0716061.9664884-.0363774 1.9656283-.0735206 2.9520918-.0735206zm5.7996983 1.6768071c-.962647 0-1.9502629-.0367603-2.9048429-.0727548-.9526595-.0356116-1.9372022-.0723719-2.8948554-.0723719-.9572691 0-1.942196.0367603-2.8940871.0723719-.9545801.0356116-1.9414277.0727548-2.9040747.0727548-1.8284914 0-4.2093717-.1167906-6.4100917-1.0262259-2.9801338-1.231854-5.178549-3.6166804-7.3047465-5.9222424-.6365148-.6907879-1.2949254-1.404551-1.9514153-2.0593444-.6564898-.6544104-1.3729051-1.3111184-2.065888-1.945617-2.3132721-2.1198458-4.7052924-4.3112976-5.9410606-7.2823747-1.1977388-2.8795592-1.0751991-6.135146-.9561167-9.2835151.0353406-.949259.0726019-1.9310662.0726019-2.885686s-.0372613-1.936427-.0726019-2.8860689c-.1190824-3.1483691-.2416221-6.403573.9557325-9.2835151 1.2361524-2.9710772 3.6277885-5.1629119 5.9410607-7.2827576.6929829-.6344986 1.409014-1.2908237 2.0655039-1.9452342.6564899-.6547933 1.3152846-1.3689393 1.9521835-2.0597272 2.1258134-2.3059449 4.3242286-4.6903885 7.3043624-5.9222425 2.20072-.9094352 4.580832-1.0262258 6.4089393-1.0262258.962647 0 1.9498787.0371432 2.9048429.0727548.9522753.0359945 1.9372022.0727548 2.8948554.0727548s1.9425801-.0367603 2.8952395-.0727548c.9545801-.0356116 1.9418118-.0727548 2.9044588-.0727548 1.8281073 0 4.2082193.1167906 6.4085552 1.0262258 2.9812861 1.231854 5.1800855 3.6166805 7.3066672 5.9230083.6368989.6907879 1.2953095 1.4041681 1.9514152 2.0585785.6564899.6544105 1.3729051 1.3111185 2.0655039 1.9456171 2.3136563 2.1194628 4.7056765 4.3112975 5.9418289 7.2823747 1.1977388 2.8795592 1.0751991 6.1355289.9565008 9.283898-.0357247.9496419-.072986 1.9314491-.072986 2.8860689 0 .9542369.0372613 1.9360441.072986 2.8849201.1183142 3.1487521.2408538 6.4043389-.9568849 9.2846639-1.2357683 2.9714601-3.6285568 5.1632948-5.9422131 7.2827576-.6925987.6344986-1.4086298 1.2908237-2.0651197 1.9452342-.6564899.6540275-1.3149005 1.3681735-1.9514153 2.0585785-2.1265816 2.3059449-4.325381 4.6911542-7.306283 5.9230082-2.2003359.9094353-4.5804479 1.025843-6.4085552 1.025843z" fill="#f9c44f"/><path d="m48.2003406 26.4306777h5.9514323v-3.8877879h-5.9514323z" fill="#fff"/><path d="m54.9200467 26.4306777h-1.5365475v-3.1219477h-4.4148849v3.1219477h-1.5365474v-4.6536281h7.4879798z" fill="#282d33"/><path d="m48.2003406 84.0601543h5.9514323v-3.8877879h-5.9514323z" fill="#fff"/><path d="m54.9200467 84.8259945h-7.4879798v-4.6536281h1.5365474v3.1219476h4.4148849v-3.1219476h1.5365475z" fill="#282d33"/><path d="m78.1319005 56.2678127h3.9005256v-5.9325813h-3.9005256z" fill="#fff"/><path d="m82.8006998 57.0336529h-4.6687993v-1.5316804h3.1322519v-4.4009009h-3.1322519v-1.5316804h4.6687993z" fill="#282d33"/><path d="m20.3193033 56.2678127h3.9001415v-5.9325813h-3.9001415z" fill="#fff"/><path d="m24.2198289 57.0336529h-4.6687994v-7.4642617h4.6687994v1.5316804h-3.1322519v4.4009009h3.1322519z" fill="#282d33"/><path d="m39.9867263 28.0940826 4.5958134 10.5015841c2.0144136-.8983306 4.2435598-1.4007218 6.5921726-1.4007218 2.3497651 0 4.5796796.5023912 6.5948616 1.4007218l4.5946609-10.5004353c-3.4218911-1.509854-7.2060233-2.3561074-11.1895225-2.3561074-3.9823468 0-7.7649425.8462534-11.187986 2.3549586" fill="#09a59a"/><path d="m62.1414355 78.6429835-4.5958134-10.5015841c-1.9541042.8370634-4.1083437 1.3003967-6.3709098 1.3003967-2.2614137 0-4.4141167-.4633333-6.3705257-1.3003967l-4.5946609 10.5015841c3.362734 1.4482038 7.0685023 2.2553994 10.9651866 2.2553994 3.8963001 0 7.6039891-.8071956 10.9667232-2.2553994" fill="#09a59a"/><path d="m36.471874 60.0353636c-.9415194-2.0451763-1.4716283-4.31819-1.4716283-6.7164187 0-2.1991102.4444464-4.294449 1.243451-6.2056033l-4.5408818-1.9743361-5.9967605-2.6080689c-1.4136236 3.3141736-2.1972628 6.959956-2.1972628 10.7880083 0 4.0267879.8723748 7.8483306 2.4281291 11.2976749l5.7658942-2.5077438z" fill="#09a59a"/><path d="m66.1068802 47.1152562c.8005413 1.9092397 1.2434511 4.0049614 1.2434511 6.2036887 0 2.3982287-.5289565 4.6712424-1.4712442 6.7164187l4.7709798 2.0738954 5.7639735 2.5073608c1.5557543-3.4493443 2.4288974-7.270887 2.4288974-11.2976749 0-3.8280523-.7832551-7.4726859-2.1972628-10.7880083z" fill="#09a59a"/><path d="m51.1747123 37.9607851c-8.4951866 0-15.4061929 6.8894986-15.4061929 15.3581598 0 8.4678953 6.9110063 15.357011 15.4061929 15.357011 8.4955707 0 15.4073452-6.8891157 15.4073452-15.357011 0-8.4686612-6.9117745-15.3581598-15.4073452-15.3581598zm0 32.2468513c-9.3425925 0-16.9427403-7.5760744-16.9427403-16.8886915 0-9.313 7.6001478-16.8898402 16.9427403-16.8898402 9.3429767 0 16.9438927 7.5768402 16.9438927 16.8898402 0 9.3126171-7.600916 16.8886915-16.9438927 16.8886915zm0-43.7026722c-14.8315241 0-26.897647 12.0286694-26.897647 26.8139807 0 14.7849284 12.0661229 26.8135978 26.897647 26.8135978 14.8326765 0 26.8999518-12.0286694 26.8999518-26.8135978 0-14.7853113-12.0672753-26.8139807-26.8999518-26.8139807zm0 55.1592589c-15.67893 0-28.4341944-12.7156281-28.4341944-28.3452782 0-15.6300331 12.7552644-28.3456612 28.4341944-28.3456612 15.6796983 0 28.4364992 12.7156281 28.4364992 28.3456612 0 15.6296501-12.7568009 28.3452782-28.4364992 28.3452782z" fill="#282d33"/><path d="m223.4236 73.3383912h1.536548v-1.5316805h-1.536548z" fill="#282d33"/><path d="m187.452641 41.1244711h1.536547v-1.5316805h-1.536547z" fill="#282d33"/><path d="m199.637846 122.664628 5.543095-4.70762 4.182482-3.586047c.491311-.419297 1.135509-.973 1.779322-1.526319l4.143684-3.549287z" fill="#f9c44f"/><path d="m230.858569 109.295355 4.142148 3.549287c.646118.553319 1.289932 1.107022 1.780474 1.526319l10.148128 8.696499z" fill="#f9c44f"/><path d="m209.313101 60.1085014c0 .5854848-.480939 1.0645179-1.069437 1.0645179h-35.415113c-.585425 0-1.066749-.4790331-1.066749-1.0645179v-8.6984132l-1.468939-1.6637879 1.468939-1.9295345v-1.3957438c0-.5862507.481324-1.0660495 1.066749-1.0660495h35.415113c.588498 0 1.069437.4797988 1.069437 1.0660495z" fill="#fff"/><path d="m171.284705 49.7103058 1.245371 1.4106777v8.9875179c0 .1615923.136753.2986777.298475.2986777h35.415113c.163258 0 .301163-.1370854.301163-.2986777v-13.6874794c0-.1623581-.137905-.3002093-.301163-.3002093h-35.415113c-.161722 0-.298475.1378512-.298475.3002093v1.6534491zm36.958959 12.2285537h-35.415113c-1.011817 0-1.835022-.8213636-1.835022-1.8303581v-8.4093086l-1.692891-1.916898 1.692891-2.2232342v-1.1380386c0-1.0101432.823205-1.8318898 1.835022-1.8318898h35.415113c1.013353 0 1.837711.8217466 1.837711 1.8318898v13.6874794c0 1.0089945-.824358 1.8303581-1.837711 1.8303581z" fill="#282d33"/><path d="m176.147877 72.5331102c0 .5854848.479787 1.0649008 1.067901 1.0649008h35.201149c.587345 0 1.068669-.479416 1.068669-1.0649008v-1.663405l1.467018-1.6626391-1.467018-1.9291515v-1.3968926c0-.5854848-.481324-1.0645179-1.068669-1.0645179h-35.201149c-.588114 0-1.067901.4790331-1.067901 1.0645179z" fill="#09a59a"/><path d="m175.107635 49.6919256h11.026264z" fill="#fff"/><path d="m175.107635 50.4577658h11.026264v-1.5316804h-11.026264z" fill="#282d33"/><path d="m187.89824 49.6919256h10.584122z" fill="#fff"/><path d="m187.89824 50.4577658h10.584122v-1.5316804h-10.584122z" fill="#282d33"/><path d="m194.403213 49.6919256h9.26154z" fill="#fff"/><path d="m194.403213 50.4577658h9.26154v-1.5316804h-9.26154z" fill="#282d33"/><path d="m175.107635 53.0995317h4.741017z" fill="#fff"/><path d="m175.107635 53.8653719h4.741017v-1.5316804h-4.741017z" fill="#282d33"/><path d="m181.833103 53.0995317h16.208654z" fill="#fff"/><path d="m181.833103 53.8653719h16.208654v-1.5316804h-16.208654z" fill="#282d33"/><path d="m199.805714 53.0995317h5.513132z" fill="#fff"/><path d="m199.805714 53.8653719h5.513132v-1.5316804h-5.513132z" fill="#282d33"/><path d="m175.107635 56.5067548h11.026264z" fill="#fff"/><path d="m175.107635 57.272595h11.026264v-1.5316804h-11.026264z" fill="#282d33"/><path d="m187.89824 56.5067548h7.386567z" fill="#fff"/><path d="m187.89824 57.272595h7.386567v-1.5316804h-7.386567z" fill="#282d33"/><path d="m179.297415 69.1465647h10.143518z" fill="#fff"/><path d="m179.297415 69.912405h10.143518v-1.5316805h-10.143518z" fill="#282d33"/><path d="m191.646263 69.1465647h12.900468z" fill="#fff"/><path d="m191.646263 69.912405h12.900468v-1.5316805h-12.900468z" fill="#282d33"/><path d="m206.45858 69.1465647h3.049663z" fill="#fff"/><path d="m206.45858 69.912405h3.049663v-1.5316805h-3.049663z" fill="#282d33"/><path d="m17.8116579.94925895c9.3287636 0 16.8874245 7.53357025 16.8874245 16.83278515 0 4.1558319-1.5131151 7.9498044-4.0176874 10.8868016l3.9358663 7.4393719-7.1591587-4.5222865c-2.733902 1.9050276-6.0547651 3.0308127-9.6464447 3.0308127-9.32376988 0-16.88435152-7.5385482-16.88435152-16.8346997 0-9.2992149 7.56058164-16.83278515 16.88435152-16.83278515" fill="#fff"/><path d="m27.4373593 30.666157 5.1551166 3.2563526-2.8330093-5.3547548.336888-.3947906c2.4726889-2.9002369 3.8344541-6.590438 3.8344541-10.3909201 0-8.85962261-7.2309922-16.06694493-16.1191508-16.06694493-8.88662213 0-16.11607781 7.20732232-16.11607781 16.06694493 0 8.8603884 7.22945568 16.0688595 16.11607781 16.0688595 3.3070342 0 6.4903763-1.0001873 9.206608-2.8925785zm9.2050715 7.6277686-9.169731-5.7924325c-2.8802581 1.8870303-6.2095723 2.8810909-9.6610419 2.8810909-9.7336439 0-17.65262524-7.8954297-17.65262524-17.6005399 0-9.70396146 7.91898134-17.59862537 17.65262524-17.59862537 9.7355645 0 17.6556982 7.89466391 17.6556982 17.59862537 0 3.9896446-1.369832 7.8686253-3.8674898 10.9806171z" fill="#282d33"/><path d="m3.97005443 17.8023388c0 7.6618485 6.23069987 13.8724298 13.91574187 13.8724298 7.6858102 0 13.9165101-6.2105813 13.9165101-13.8724298 0-7.6610826-6.2306999-13.87128095-13.9165101-13.87128095-7.685042 0-13.91574187 6.21019835-13.91574187 13.87128095" fill="#09a59a"/><path d="m15.1150171 26.1147686h4.6008072v-10.0171901h-4.6008072z" fill="#f9c44f"/><path d="m20.1606547 26.1951818h-1.5365474v-9.2111432h-6.1730793v-1.5316805h7.7096267z" fill="#282d33"/><path d="m22.2991446 26.961022h-7.7100109v-10.7428237h1.5365475v9.2111433h6.1734634z" fill="#282d33"/><path d="m19.7158243 10.4261488c0 1.2885261-1.0479254 2.3327493-2.3409301 2.3327493-1.2926205 0-2.3405458-1.0442232-2.3405458-2.3327493 0-1.28929205 1.0479253-2.33389811 2.3405458-2.33389811 1.2930047 0 2.3409301 1.04460606 2.3409301 2.33389811" fill="#f9c44f"/><path d="m17.3748942 8.85809091c-.8666127 0-1.5722721.70342424-1.5722721 1.56805789 0 .8638677.7056594 1.5669091 1.5722721 1.5669091.8669969 0 1.5726563-.7030414 1.5726563-1.5669091 0-.86463365-.7056594-1.56805789-1.5726563-1.56805789zm0 4.66664739c-1.7140186 0-3.1088195-1.39-3.1088195-3.0985895 0-1.70935541 1.3948009-3.09973833 3.1088195-3.09973833 1.7144028 0 3.1092038 1.39038292 3.1092038 3.09973833 0 1.7085895-1.394801 3.0985895-3.1092038 3.0985895z" fill="#282d33"/><path d="m17.3487729 100.395526c6.682829 0 12.1003111-5.4007051 12.1003111-12.0619833 0-2.8385868-.9856952-5.4455069-2.6313375-7.506l.7102691-2.6413829-2.6509285.7072534c-2.0662722-1.6400468-4.68186-2.621854-7.5283142-2.621854-6.6824448 0-12.100311 5.3995565-12.100311 12.0619835 0 6.6612782 5.4178662 12.0619833 12.100311 12.0619833" fill="#fff"/><path d="m17.3487729 77.0373994c-6.2487542 0-11.33203729 5.0671819-11.33203729 11.2961433 0 6.2285785 5.08328309 11.2961433 11.33203729 11.2961433 6.2487543 0 11.3320374-5.0675648 11.3320374-11.2961433 0-2.5797328-.8520156-5.0101267-2.4638538-7.0288815l-.2416221-.302124.4663421-1.7338623-1.74014.4644821-.3030839-.2404738c-2.023633-1.6063499-4.4613655-2.4552838-7.0496797-2.4552838zm0 24.1239666c-7.095776 0-12.86858472-5.754523-12.86858472-12.8278233 0-7.0736832 5.77280872-12.8278237 12.86858472-12.8278237 2.8088087 0 5.4612738.8803333 7.6965661 2.549865l3.5690156-.9523223-.9557325 3.556562c1.6752208 2.2297438 2.5587356 4.8741901 2.5587356 7.673719 0 7.0733003-5.7728087 12.8278233-12.8685848 12.8278233z" fill="#282d33"/><path d="m17.3487729 78.5690799c5.4013484 0 9.7954899 4.3802231 9.7954899 9.7644628 0 5.3838567-4.3941415 9.7644628-9.7954899 9.7644628-5.4013483 0-9.79548985-4.3806061-9.79548985-9.7644628 0-5.3842397 4.39414155-9.7644628 9.79548985-9.7644628" fill="#f9c44f"/><path d="m18.014098 88.936259-.9741711-1.1847549 1.0855708-.8791845c.3522535-.2236254.4455987-.3963224.4455987-.4564408v-.9626612c0-.3576474-.2915599-.6486666-.6499595-.6486666h-1.13935c-.3580155 0-.6495754.2910192-.6495754.6486666v.4499312h-1.5365474v-.4499312c0-1.2023691.9807014-2.1803471 2.1861228-2.1803471h1.13935c1.2058056 0 2.186507.977978 2.186507 2.1803471v.9626612c0 .4564408-.1955257 1.1231047-1.1174542 1.7227576z" fill="#282d33"/><path d="m17.3925645 90.4832562h-1.5365474v-.9626612c0-.4564407.1955257-1.1227217 1.1178383-1.7223746l.9760917-.7976226.9741711 1.183989-1.0855708.8803333c-.3526376.2232424-.4459829.3955565-.4459829.4556749z" fill="#282d33"/><path d="m16.6242908 91.1970193v1.7296501z" fill="#fff"/><path d="m15.8560171 92.9266694h1.5365474v-1.7296501h-1.5365474z" fill="#282d33"/><path d="m78.7334588 14.062741h16.0669082v12.0956805h-2.7945956v3.2096364l-3.0266143-3.2096364h-10.2456983z" fill="#09a59a"/><path d="m90.4315785 9.65915978h-21.3042301v13.47917082h3.3750264v4.2331818l4.4141166-4.2331818h13.5150871z" fill="#fff"/><path d="m69.8956221 22.3724904h3.3750264v3.1996804l3.3366128-3.1996804h13.0560435v-11.9474904h-19.7676827zm1.838479 6.7991294v-5.267449h-3.3750264v-15.01085124h22.8407776v15.01085124h-13.9737465z" fill="#282d33"/><path d="m73.2894712 15.3133581h12.9807528v-1.5316804h-12.9807528z" fill="#282d33"/><path d="m73.2894712 18.7473857h12.9807528v-1.5316805h-12.9807528z" fill="#282d33"/><g fill="#fff"><path d="m9.17434059 61.8396832-5.70520062.0003829z"/><path d="m212.916689 128.267515v-2.208683z"/><path d="m210.83121 129.618074-1.918764-1.103958z"/><path d="m210.961432 132.094419-1.918763 1.103193z"/><path d="m213.177902 133.219055v2.209449z"/><path d="m215.263765 131.869262 1.919148 1.103958z"/><path d="m215.133159 129.392917 1.919147-1.104341z"/></g><path d="m125.473311 123.8333h19.206843v-1.53168h-19.206843z" fill="#282d33"/><path d="m115.86989 128.428342h58.772939v-1.531681h-58.772939z" fill="#282d33"/><path d="m191.928988 134.172143h.768273v-1.53168h-.768273z" fill="#282d33"/><path d="m136.239131 134.172143h1.546919v-1.53168h-1.546919zm3.094222 0h1.546535v-1.53168h-1.546535zm3.093454 0h1.547303v-1.53168h-1.547303zm3.093838 0h1.547304v-1.53168h-1.547304zm3.094223 0h1.546535v-1.53168h-1.546535zm3.093838 0h1.546919v-1.53168h-1.546919zm3.093454 0h1.547303v-1.53168h-1.547303zm3.094223 0h1.546535v-1.53168h-1.546535zm3.093838 0h1.546919v-1.53168h-1.546919zm3.093454 0h1.547303v-1.53168h-1.547303zm3.094222 0h1.546535v-1.53168h-1.546535zm3.093839 0h1.546919v-1.53168h-1.546919zm3.094222 0h1.546535v-1.53168h-1.546535zm3.093454 0h1.547303v-1.53168h-1.547303zm3.093838 0h1.54692v-1.53168h-1.54692zm3.094223 0h1.546535v-1.53168h-1.546535zm3.093454 0h1.547303v-1.53168h-1.547303zm3.093838 0h1.546919v-1.53168h-1.546919z" fill="#282d33"/><path d="m133.924322 134.172143h.768274v-1.53168h-.768274z" fill="#282d33"/><path d="m113.565068 123.8333h8.066874v-1.53168h-8.066874z" fill="#282d33"/></g></svg>