<svg height="468" viewBox="0 0 566 468" width="566" xmlns="http://www.w3.org/2000/svg" xmlns:xlink="http://www.w3.org/1999/xlink"><defs><path id="a" d="m0-.02 566 1.904v466.116h-566z"/><mask id="b" fill="#fff"><use fill="#fff" fill-rule="evenodd" xlink:href="#a"/></mask></defs><g fill="none" fill-rule="evenodd"><use fill="#fff" xlink:href="#a"/><g fill="#dcebea" mask="url(#b)" opacity=".2"><path d="m375-82.378c-5.754 33.547-24.812 61.855-57.174 84.922-48.543 34.601-87.348 16.407-131.477 36.699-44.13 20.292-31.192 56.865-79.175 91.049-31.988 22.789-101.186 36.41-207.594 40.865l-3.645-262.157z"/><path d="m289-71c-6.654 65.318-27.857 106.959-63.61 124.922-53.629 26.945-81.954 13.998-129.476 40.699-47.523 26.7-22.77 71.43-78.738 103.914-37.312 21.656-100.656 19.656-190.031-6l-3.645-262.157z"/></g><g mask="url(#b)" opacity=".3"><g transform="matrix(-1 0 0 1 301 10)"><path d="m83.203 15.713s-1.833 2.297-2.451 3.564c-.638 1.305-1.316 4.151-1.316 4.151s-2.394-1.828-3.647-2.433c-1.324-.64-4.085-1.3-4.085-1.3s1.83-2.262 2.427-3.487c.658-1.347 1.34-4.228 1.34-4.228s2.294 1.868 3.623 2.51c1.248.602 4.109 1.223 4.109 1.223zm133.149 101.058s2.922-.313 4.257-.764c1.376-.465 3.877-1.985 3.877-1.985s.384 2.987.835 4.304c.477 1.39 1.95 3.818 1.95 3.818s-2.895.29-4.186.727c-1.42.48-3.948 2.022-3.948 2.022s-.286-2.945-.764-4.34c-.45-1.312-2.021-3.782-2.021-3.782zm-3.111-113.027s-.176 2.934.047 4.325c.23 1.435 1.314 4.153 1.314 4.153s-3.01-.118-4.382.11c-1.451.239-4.09 1.288-4.09 1.288s.195-2.903-.021-4.249c-.238-1.48-1.339-4.229-1.339-4.229s2.951.208 4.407-.033c1.368-.226 4.064-1.365 4.064-1.365zm-180.828 63.603s-.602-1.434-1.033-2.043c-.445-.627-1.595-1.665-1.595-1.665s1.456-.648 2.055-1.076c.633-.453 1.64-1.568 1.64-1.568s.587 1.423 1.005 2.012c.459.647 1.624 1.695 1.624 1.695s-1.45.592-2.085 1.047c-.597.426-1.61 1.598-1.61 1.598z" fill="#c8dde7"/><g stroke="#c8dde7" stroke-linecap="round" stroke-linejoin="round" stroke-width="2.8"><path d="m171.505 88.394-8.09 7.379 8.09-7.38zm24.095 72.952-2.878 10.564 2.877-10.564zm86.395 50.779-7.417 8.055zm-271.082-187.293-10.69 2.366zm267.51 34.261c-1.763 2.54-1.143 6.022 1.386 7.777 2.528 1.755 6.007 1.12 7.77-1.42 1.764-2.54 1.143-6.022-1.385-7.777"/><ellipse cx="257.843" cy="169.93" rx="3.876" ry="3.893" transform="matrix(-.94438785 .32883368 -.32883368 -.94438785 557.225504 245.622364)"/><ellipse cx="68.647" cy="66.375" rx="3.876" ry="3.893" transform="matrix(-.48959552 -.87194967 .87194967 -.48959552 44.380605 158.728632)"/><ellipse cx="163.887" cy="127.244" rx="1.875" ry="1.883" transform="matrix(-.74895572 -.66262005 .66262005 -.74895572 202.316681 331.138934)"/></g></g></g><g transform="matrix(.25881905 .96592583 -.96592583 .25881905 45.637424 143.000151)"><g stroke-linecap="round" stroke-width="1.5"><path d="m21.91 37.465c10.31 0 18.668-8.358 18.668-18.668s-8.358-18.667-18.668-18.667-18.668 8.357-18.668 18.667 8.358 18.668 18.668 18.668z" fill="#404f54" opacity=".05" stroke="#404f54" stroke-linejoin="round"/><circle cx="18.668" cy="21.182" fill="#fff" r="18.668" stroke="#c8dde7"/><circle cx="21.01" cy="19.982" fill="#404f54" opacity=".05" r="10.551" stroke="#404f54" stroke-linejoin="round"/><path d="m17.045 10.594c-5.145.783-9.087 5.225-9.087 10.588 0 5.915 4.795 10.71 10.71 10.71s10.71-4.795 10.71-10.71c0-5.363-3.942-9.805-9.087-10.588v-1.81a1.623 1.623 0 0 0 -3.247 0v1.81z" fill="#fff" stroke="#c8dde7"/></g><circle cx="18.668" cy="21.182" fill="#eaf1f4" r="8.252"/><path d="m23.345 21.89a5.886 5.886 0 0 0 -1.864-4.306m-4.038-1.597c-.417 0-.824.043-1.216.126" opacity=".504" stroke="#fff" stroke-linecap="round" stroke-linejoin="round" stroke-width="4"/></g><g stroke-linecap="round" stroke-width="1.5"><g><path d="m83.888 35.65c.323.38.553.837.642 1.332l.958 5.343c.243 1.357-.664 2.298-2.03 2.102l-5.374-.77c-.665-.096-1.273-.45-1.725-.947a1.021 1.021 0 0 1 -.34-.219l-17.48-16.88c-2.172-2.098-2.226-5.565-.13-7.736a5.475 5.475 0 0 1 7.736-.141l17.48 16.88c.288.279.377.684.263 1.036z" fill="#404f54" opacity=".05" stroke="#404f54" stroke-linejoin="round"/><g fill="#fff" stroke="#c8dde7"><path d="m71.866 33.208a2.502 2.502 0 0 1 2.452-2.538l3.636-.064c1.378-.024 2.692 1.054 2.935 2.413l.958 5.343c.243 1.357-.663 2.299-2.03 2.103l-5.373-.771c-1.365-.196-2.49-1.482-2.514-2.85z"/><path d="m54.898 21.648a5.475 5.475 0 0 1 7.607-7.877l17.48 16.881a.998.998 0 0 1 .035 1.412l-6.23 6.451a.996.996 0 0 1 -1.412.014l-17.48-16.88zm1.872-1.451a3.128 3.128 0 0 1 -.075-4.424m20.903 17.705-17.457-16.858m14.394 20.03-14.883-14.373"/></g></g><path d="m207.943 38.48 14.641 34.492a2.305 2.305 0 0 1 -1.213 3.025l-43.231 18.35a2.3 2.3 0 0 1 -3.014-1.216l-24.507-57.735a2.299 2.299 0 0 1 1.218-3.013l43.232-18.35a2.3 2.3 0 0 1 3.015 1.22l7.214 16.995m.92 2.168.471 1.11" fill="#404f54" opacity=".05" stroke="#404f54" stroke-linejoin="round"/><path d="m203.84 36.701 14.64 34.492a2.305 2.305 0 0 1 -1.212 3.025l-43.231 18.35a2.3 2.3 0 0 1 -3.014-1.216l-24.507-57.734a2.299 2.299 0 0 1 1.218-3.014l43.231-18.35a2.3 2.3 0 0 1 3.016 1.22l7.214 16.995m.92 2.168.471 1.11" fill="#fff" stroke="#c8dde7"/></g><path d="m157.899 42.638-.46-6.914 1.507-.64 4.646 5.138-1.678.712-.866-1.026-1.608.683.145 1.332zm1.322-3.255 1.094-.464-1.326-1.638zm6.556 21.61 14.85-6.304 3.903 9.193-14.85 6.304zm17.68-7.505 14.85-6.303 3.902 9.193-14.85 6.303z" fill="#c8dde7"/><g stroke-linecap="round" stroke-linejoin="round" stroke-width="2"><path d="m166.314 32.39 16.968-7.202" stroke="#c8dde7"/><path d="m168.115 36.633 9.896-4.2" stroke="#e9f1f4"/><path d="m160.21 47.5 15.428-6.55m4.736-2.01 5.537-2.35 3.014-1.28 6.638-2.817" stroke="#c8dde7"/><path d="m162.01 51.742 7.94-3.37m2.13-.903 15.765-6.692m2.982-1.266 6.537-2.775m-33.553 19.249 21.211-9.003" stroke="#e9f1f4"/><path d="m171.916 75.078 15.429-6.549m4.735-2.01 5.538-2.35 3.014-1.28m-26.915 16.432 21.21-9.003" stroke="#c8dde7"/></g><g transform="matrix(.93969262 .34202014 -.34202014 .93969262 64.133334 18.895787)"><rect fill="#e1ebf0" height="95.776" rx="3" stroke="#404f54" stroke-linecap="round" stroke-width="2" transform="matrix(.98162718 .190809 -.190809 .98162718 14.044641 -8.359176)" width="82.857" x="9" y="20.861"/><rect fill="#fff" height="95.776" rx="3" stroke="#404f54" stroke-linecap="round" stroke-width="2" width="82.857" x="9" y="19.861"/><circle cx="55.03" cy="27.552" fill="#e0eaef" r="22.293"/><circle cx="50.716" cy="23.431" fill="#fff" r="22.293"/><circle cx="50.716" cy="23.431" r="22.293" stroke="#404f54" stroke-linecap="round" stroke-width="2"/><g transform="translate(39.227 6.419)"><g stroke="#404f54" stroke-width="1.3"><g stroke-linecap="round"><ellipse cx="2.422" cy="19.971" fill="#f5f6f7" rx="2.153" ry="2.142"/><ellipse cx="21.177" cy="19.971" fill="#f5f6f7" rx="2.153" ry="2.142"/><rect fill="#ff8f5c" height="7.396" rx="3.698" width="17.312" x="3.133" y="23.791"/></g><circle cx="11.995" cy="4.863" fill="#ffa47b" r="4.337"/></g><path d="m9.166 8.15a4.337 4.337 0 0 0 6.954-4.63 4.337 4.337 0 0 0 -6.954 4.63z" fill="#ff8f5c"/><g stroke="#404f54"><circle cx="11.995" cy="4.863" r="4.337" stroke-width="1.3"/><rect fill="#f5f6f7" height="7.396" rx="2.073" stroke-linecap="round" stroke-width="1.3" width="4.146" x="9.716" y="26.323"/><rect fill="#fff" height="23.01" rx="8.656" stroke-linecap="round" stroke-width="1.3" width="17.312" x="3.133" y="6.88"/><path d="m11.012 20.847v2.455h.718" stroke-linecap="round" stroke-linejoin="round" stroke-width=".975"/></g><path d="m10.193 25.117a1.437 1.437 0 0 0 2.875 0" fill="#f5f6f7" stroke="#ff8f5c" stroke-linecap="round" stroke-width="1.3"/><path d="m9.09 7.31c-3.454 1.134-5.957 4.386-5.957 8.22v2.822c.683-.15 3.597-.792 7.4-1.62 4.36-.95 6.08-2.4 6.08-2.4s.813 2.115 1.413 3.185c.515.918 1.788 2.273 1.788 2.273v-2.67s.275.1.63.13v-1.72c0-3.678-2.301-6.825-5.545-8.074-1.575-.21-3.397-.15-5.496-.15-.106 0-.21 0-.313.004z" fill="#dae2e6"/><path d="m16.487 21.068c0-.552-.45-1-1.005-1s-1.005.448-1.005 1m-5.359 0c0-.552-.45-1-1.005-1s-1.005.448-1.005 1" fill="#f5f6f7" stroke="#404f54" stroke-linecap="round" stroke-width=".975"/><path d="m9.767 18.475c0-.908-.74-1.645-1.654-1.645-.913 0-1.653.737-1.653 1.645m10.438 0c0-.908-.74-1.645-1.653-1.645s-1.653.737-1.653 1.645" stroke="#404f54" stroke-linecap="round" stroke-width=".975"/><path d="m17.086 12.208s-2.143 1.781-6.503 2.73c-4.36.95-7.345 1.42-7.345 1.42l-.205 2.01h-1.863s-.839-5.803.602-8.346c1.44-2.543 3.748-4.662 7.63-4.662 3.883 0 6.818-.205 8.996 1.477 2.179 1.682 3.615 4.733 3.615 6.93v4.405h-1.583s-1.517-1.644-2.032-2.561c-.6-1.07-1.312-3.403-1.312-3.403z" fill="#ffa47b" stroke="#404f54" stroke-width="1.3"/><path d="m3.365 16.337c.612-.1 3.384-.564 7.218-1.399 4.36-.949 6.503-2.73 6.503-2.73s.712 2.332 1.312 3.403c.252.447.742 1.068 1.178 1.587v-3.223c0-1.69-1.105-4.035-2.78-5.328-1.674-1.294-3.93-1.136-6.915-1.136s-4.76 1.63-5.868 3.584c-.526.93-.656 3.16-.648 5.242z" fill="#ff8f5c"/><path d="m17.086 12.208s-2.143 1.781-6.503 2.73c-4.36.95-7.345 1.42-7.345 1.42l-.156 2.01h-1.912s-.839-5.803.602-8.346c1.44-2.543 3.748-4.662 7.63-4.662 3.883 0 6.818-.205 8.996 1.477 2.179 1.682 3.615 4.733 3.615 6.93v4.405h-1.583s-1.517-1.644-2.032-2.561c-.6-1.07-1.312-3.403-1.312-3.403z" stroke="#404f54" stroke-width="1.3"/><path d="m17.086 14.153s-2.143 1.781-6.503 2.73c-4.36.95-7.345 1.42-7.345 1.42l-.156 2.011h-1.912s-.839-5.804.602-8.347c1.44-2.543 3.749-4.662 7.63-4.662 3.883 0 6.818-.205 8.996 1.477 2.179 1.682 3.615 4.733 3.615 6.93v4.405h-1.583s-1.517-1.644-2.032-2.561c-.6-1.07-1.312-3.403-1.312-3.403z"/></g><path d="m36.585 55.17h29.275" fill="#f5f6f7" stroke="#1ea69a" stroke-linecap="round" stroke-linejoin="round" stroke-width="2"/><path d="m31.068 61.79h40.309" fill="#f5f6f7" stroke="#c3d2da" stroke-linecap="round" stroke-linejoin="round" stroke-width="2"/><path d="m17.827 73.927h63.997v33.102h-63.997z" fill="#e1fffc"/><path d="m17.827 104.29s4.804-.14 6.95-1.158c2.8-1.33 8.317-14.64 11.738-16.341 5.813-2.89 13.979 8.5 19.933 6.696 5.376-1.628 13.536-12.628 17.537-15.885 6.826-5.556 8.338.106 8.338.106l-.5 29.321h-63.995v-2.738z" fill="#9be8e2"/><path d="m20.082 103.697c10.13 0 11.412-16.951 18.53-16.951s12.406 9.625 20.17 6.075c7.765-3.55 11.479-16.92 21.585-16.92" stroke="#1ea69a" stroke-linecap="round" stroke-linejoin="round" stroke-width="2"/></g><g stroke-linecap="round" stroke-width="1.5"><path d="m43.948 110.545a2.497 2.497 0 0 1 3.192-1.488l4.228 1.538c1.292.47 2.13 1.95 1.87 3.306l-1.213 6.337c-.26 1.355-1.446 1.909-2.651 1.237l-5.635-3.145c-1.205-.672-1.797-2.274-1.33-3.558z" fill="#fff" stroke="#404f54"/><path d="m31.008 92.241c-1.402-3.006-.091-6.584 2.914-7.986 3.01-1.404 6.591-.099 7.99 2.901l11.332 24.302a1.004 1.004 0 0 1 -.49 1.325l-9.083 4.235a1.004 1.004 0 0 1 -1.331-.475l-11.332-24.303z" fill="#ff8f5c" stroke="#404f54"/><path d="m33.5 91.49a3.437 3.437 0 0 1 1.665-4.568m14.471 26.393-11.27-24.167m6.879 26.215-9.608-20.605" stroke="#fff"/></g><g transform="matrix(.93969262 .34202014 -.34202014 .93969262 113.618397 96.37405)"><circle cx="18.779" cy="18.259" fill="#fff" r="18.177"/><circle cx="20.322" cy="19.802" fill="#71d5ca" r="18.177"/><circle cx="21.601" cy="21.739" fill="#1cc1b6" r="15.582"/><circle cx="18.779" cy="18.259" r="18.177" stroke="#404f54" stroke-linecap="round" stroke-width="1.5"/><path d="m19.85 25.027c-3.169 0-3.298-1.882-3.298-3.62v-5.609h-1.479l.237-1.672c1.479-.237 2.012-1.372 2.399-2.635h1.391v2.441h3.3l-.645 1.862h-2.657v5.502c0 1.307.494 1.694 1.393 1.694.619 0 1.156-.215 1.5-.409l.495 1.754c-.602.392-1.608.692-2.636.692z" fill="#fff"/></g></g></svg>