<svg height="124" viewBox="0 0 144 124" width="144" xmlns="http://www.w3.org/2000/svg"><g fill="none" fill-rule="evenodd"><g transform="translate(1 14.477)"><path d="m35.057 55.97s1.094 1.733 1.787 2.43c.715.719 2.434 1.816 2.434 1.816s-1.75 1.161-2.434 1.85c-.723.727-1.787 2.397-1.787 2.397s-1.072-1.723-1.743-2.398c-.737-.741-2.478-1.849-2.478-1.849s1.753-1.086 2.478-1.816c.682-.686 1.743-2.43 1.743-2.43z" fill="#dae2e6"/><ellipse cx="8.618" cy="24.244" rx="4.358" ry="4.384" stroke="#dae2e6" stroke-linecap="round" stroke-linejoin="round" stroke-width="2"/><path d="m46.958 72.21a24.57 24.57 0 0 0 .316-3.937c0-13.418-10.813-24.296-24.15-24.296-10.909 0-20.127 7.273-23.124 17.263m51.71 17.278c0-3.382-2.726-6.124-6.088-6.124s-6.087 2.742-6.087 6.124" stroke="#dae2e6" stroke-linecap="round" stroke-linejoin="round" stroke-width="2"/><path d="m114.536 0s.82 1.297 1.337 1.818c.535.538 1.82 1.359 1.82 1.359s-1.308.868-1.82 1.383c-.54.544-1.337 1.793-1.337 1.793s-.802-1.289-1.303-1.793c-.551-.555-1.854-1.383-1.854-1.383s1.311-.813 1.854-1.359c.51-.513 1.303-1.818 1.303-1.818zm-43.702 65.927s.693 1.098 1.132 1.54c.453.454 1.542 1.15 1.542 1.15s-1.108.735-1.542 1.171c-.458.46-1.132 1.519-1.132 1.519s-.68-1.092-1.104-1.519c-.467-.47-1.57-1.171-1.57-1.171s1.11-.688 1.57-1.15c.432-.435 1.104-1.54 1.104-1.54zm39.419-15.602s.82 1.297 1.337 1.818c.535.537 1.82 1.359 1.82 1.359s-1.308.868-1.82 1.383c-.54.544-1.337 1.793-1.337 1.793s-.802-1.289-1.303-1.793c-.551-.555-1.854-1.383-1.854-1.383s1.311-.813 1.854-1.359c.51-.513 1.303-1.818 1.303-1.818z" fill="#dae2e6"/><g stroke="#dae2e6" stroke-linecap="round" stroke-width="2"><path d="m136.389 26.8-6.04-6.077m7.283 83.029-7.955 4.702" fill="#dae2e6"/><g stroke-linejoin="round"><path d="m139.487 87.954a16.153 16.153 0 0 0 2.26-8.268c0-8.922-7.19-16.154-16.058-16.154-6.884 0-12.756 4.358-15.04 10.481"/><path d="m126.672 96.835c0-4.348-1.135-8.429-3.123-11.96m-4.111-5.38c-4.357-4.303-10.329-6.956-16.916-6.956-12.527 0-22.827 9.596-24.032 21.88m9.861 5.183c-1.796-2.84-4.953-4.725-8.548-4.725-5.592 0-10.125 4.56-10.125 10.185"/></g></g></g><g transform="translate(36.5 1)"><path d="m66.222 13.214c-3.447-3.28-7.634-6.772-12.446-8.472-26.19 0-50.712 42.232-50.477 42.963.853 2.653 2.148 5.156 3.468 7.619 0 0 22.862-37.276 59.455-42.11z" fill="#ffb28f"/><path d="m25.86 16.417c-.454.413-.904.83-1.35 1.252m-4.82 4.895c-10.374 11.252-17.225 23.334-17.1 23.722.852 2.653 2.147 5.157 3.467 7.62 0 0 22.862-37.276 59.455-42.11-3.447-3.281-7.634-6.772-12.446-8.473-8.517 0-16.857 4.466-24.227 10.519" stroke="#404f54" stroke-linecap="round" stroke-width="2"/><path d="m64.488 61.172a42.977 42.977 0 0 0 5.155-8.013c-18.08-.753-34.719 15.297-38.88 19.642-.649.678 5.552.652 5.818.438 3.87-3.108 14.253-10.432 27.907-12.067z" fill="#ff864f"/><path d="m48.363 57.617c-10.94 6.13-18.594 14.836-18.594 14.836 1.089.247 4.043.642 5.165.769 0 0 12.106-11.379 29.554-13.469a42.977 42.977 0 0 0 5.155-8.013c-6.396-.266-12.612 1.57-18.159 4.248" stroke="#404f54" stroke-linecap="round" stroke-width="2"/><path d="m73.82 39.628c.132-1.315.2-2.627.2-3.931a33.1 33.1 0 0 0 -1.016-8.222c-32.292-1.665-54.073 28.432-58.964 35.898-.69 1.054 6.423 6.915 7.005 6.11 4.233-5.853 22.175-31.01 52.775-29.855z" fill="#ff9869"/><g stroke="#404f54" stroke-width="2"><g stroke-linecap="round"><path d="m37.356 36.727c-15.492 11.068-24.36 26.175-24.36 26.175 1.988 2.217 4.726 3.977 7.083 5.654.505.36 18.933-32.37 53.74-31.056.133-1.314.201-2.627.201-3.931 0-2.878-.352-5.626-1.016-8.222-9.51-.49-18.108 1.774-25.632 5.404m-3.465 1.806c-.6.336-1.191.68-1.775 1.03"/><path d="m6.685 14.804a32.2 32.2 0 0 0 -.788 1.117m-3.159 5.975c-1.429 3.597-2.208 7.52-2.208 11.673 0 18.859 14.235 37.37 32.556 39.447 1.375.156 7.238.142 8.723-.04 18.155-2.234 32.211-20.668 32.211-39.408 0-19.679-16.45-33.316-36.745-33.316-9.49 0-18.14 3.114-24.661 8.38"/><rect fill="#fff" height="2.837" rx="1.419" width="13.49" x="29.11" y="72.349"/><path d="m29.357 86.245s-6.759 3.609-4.164 7.838c2.926 4.244 4.562-6.211 4.562-6.211m12.282-1.627s6.76 3.609 4.165 7.838c-2.926 4.244-4.562-6.211-4.562-6.211" fill="#9be8e2"/><rect fill="#2fc3b6" height="10.772" rx="5.386" width="13.49" x="29.11" y="85.826"/></g><rect fill="#fff" height="2.837" rx="1.419" stroke-linejoin="bevel" width="13.49" x="29.11" y="85.826"/><path d="m30.479 75.271v10.334m10.499-10.334v10.334m-5.123-10.334v10.334" stroke-linecap="round"/></g><path d="m53.8 6.987s-8.682.928-19.566 8.86m-2.777 2.144c-.4.326-.8.66-1.203 1.006" stroke="#fff" stroke-linecap="round" stroke-linejoin="round" stroke-width="4"/></g></g></svg>