<svg height="667" viewBox="0 0 375 667" width="375" xmlns="http://www.w3.org/2000/svg" xmlns:xlink="http://www.w3.org/1999/xlink"><linearGradient id="a" x1="52.704138%" x2="52.704138%" y1="140.935832%" y2="40.243183%"><stop offset="0" stop-color="#aad8d6"/><stop offset="1" stop-color="#1ea69a"/></linearGradient><g fill="none" fill-rule="evenodd"><path d="m0 0h375v667h-375z" fill="url(#a)"/><g fill="#fff" transform="translate(-806.156304 585.08698)"><path d="m687.709219 51.9506585c67.921695 0 131.348323-51.4757313 225.140423-51.4757313 93.792098 0 135.742108 85.3796537 393.923318 85.3796537 258.1812 0-28.6074 2.3950459-28.6074 2.3950459l-580.196451 4.2843494s-78.181586-40.5833177-10.25989-40.5833177z" opacity=".200521"/><path d="m462.471121 91.0063015c129.630211 0 230.9028-86.14469307 332.978642-86.14469307 102.075843 0 148.329106 86.14469307 493.464307 86.14469307h59.04245l-775.603392 4.2843494s-239.512218-4.2843494-109.882007-4.2843494z" opacity=".140002" transform="matrix(-1 0 0 1 1883.26603 0)"/><path d="m35.0961175 91.0063015c129.6302115 0 210.8501385-74.5467844 393.1586975-74.5467844s128.079079 74.5467844 473.214281 74.5467844h59.042445l-775.603388 4.2843494s-279.4422465-4.2843494-149.8120355-4.2843494z" opacity=".140002" transform="matrix(-1 0 0 1 1072.606996 0)"/><path d="m552.561517 69.8106084c90.797345 0 175.585708-51.4757313 300.966465-51.4757313 125.380758 0 225.808808 65.672177 570.944018 65.672177 345.1352 0-82.59173 22.1025229-82.59173 22.1025229l-775.603388 4.284349s-104.512709-40.5833176-13.715365-40.5833176z" opacity=".140002" transform="matrix(-1 0 0 1 2074.515734 0)"/></g></g></svg>